<svg version="1.1" id="Layer_1" xmlns="http://www.w3.org/2000/svg" xmlns:xlink="http://www.w3.org/1999/xlink" x="0px" y="0px"
	 width="100%" viewBox="0 0 172 187" enable-background="new 0 0 172 187" xml:space="preserve">
<path fill="#FEFEFE" opacity="1.000000" stroke="none" 
	d="
M35.000000,188.000000 
	C23.686295,188.000000 12.372588,188.000000 1.058542,188.000000 
	C1.058202,125.666641 1.058202,63.333305 1.058202,1.000000 
	C11.431830,1.000000 21.747257,1.000000 32.549576,1.304544 
	C33.355812,2.349147 33.675156,3.089206 33.751984,3.919634 
	C33.345688,4.064307 33.181908,4.118609 32.572880,4.091774 
	C25.662947,4.671660 19.180576,5.200540 12.742691,6.061900 
	C10.331470,6.384511 9.472445,7.941731 11.516356,10.000164 
	C15.137821,13.647363 18.779886,17.274107 22.759178,21.255432 
	C23.607895,19.753971 24.371952,18.402283 25.489162,16.865383 
	C27.972609,16.139652 30.101730,15.278581 32.233978,15.270767 
	C32.809254,15.268658 33.491360,17.824968 33.934746,19.265310 
	C34.168373,20.024252 33.719131,21.041626 34.045586,21.716101 
	C36.526833,26.842499 34.504387,29.668777 29.695564,31.893435 
	C25.474886,33.846008 26.547947,37.055099 28.836327,40.380707 
	C29.815472,43.492371 30.843782,46.267715 31.928488,49.429611 
	C33.787083,55.184792 35.729950,55.416637 41.959549,50.799900 
	C42.048565,50.603962 42.063759,50.173813 42.384102,50.124886 
	C42.749050,49.007381 42.793659,47.938805 42.756302,46.512524 
	C42.395931,45.765102 42.117519,45.375389 41.885551,44.716515 
	C41.637058,44.252098 41.342121,44.056847 41.026630,43.635834 
	C41.006073,43.410069 40.845818,42.985939 40.918419,42.667786 
	C40.674358,41.859406 40.357693,41.369175 40.020397,40.655281 
	C39.999763,40.431614 39.856617,40.005798 40.032379,39.680000 
	C42.781338,38.088974 45.354527,36.823746 48.905319,35.077835 
	C46.601074,24.498549 44.275166,13.819792 41.964108,2.784369 
	C41.985970,1.951802 41.992985,1.475901 42.000000,1.000000 
	C43.388889,1.000000 44.777779,1.000000 46.588379,1.346042 
	C47.372990,2.298087 47.735886,2.904090 48.098785,3.510093 
	C48.399193,2.673395 48.699596,1.836698 49.000000,1.000000 
	C90.229156,1.000000 131.458313,1.000000 173.000000,1.000000 
	C173.000000,17.352900 173.000000,33.707790 172.666626,50.500977 
	C170.953033,50.291862 169.572830,49.644459 168.126221,48.681107 
	C168.029053,47.936069 167.998276,47.506985 167.827255,46.734074 
	C167.523071,46.204750 167.359131,46.019249 167.157501,45.475929 
	C167.279587,44.939232 167.439392,44.760353 167.645203,44.865845 
	C167.813461,45.216553 167.935730,45.282887 168.057983,45.349220 
	C167.927246,45.040226 167.796524,44.731232 167.508240,44.509991 
	C167.350677,44.597744 167.117783,44.322311 167.463638,44.166634 
	C167.856918,41.913868 168.350204,39.701355 167.844345,37.747509 
	C167.134567,35.005939 165.589188,32.610172 161.666275,33.973267 
	C160.909561,32.905514 160.449860,31.966562 159.993958,30.634943 
	C159.608353,26.492352 158.626511,23.608257 153.619110,26.053928 
	C152.839127,25.361156 152.399185,24.724693 152.076233,23.774059 
	C151.624146,18.878181 148.050781,21.857138 145.657501,20.946037 
	C142.974106,19.723001 140.197021,17.131742 138.389740,17.688507 
	C134.924911,18.755905 132.582977,18.269335 130.048462,15.663594 
	C127.769836,13.591615 125.656532,11.821557 123.427521,10.211698 
	C123.324158,10.137043 122.185196,11.496283 121.374176,12.561792 
	C119.471428,14.981656 117.723053,17.027437 115.510193,19.037006 
	C102.608932,17.890831 91.075371,20.318174 81.003830,28.007278 
	C79.920898,28.834044 79.570816,30.620750 78.518433,31.982044 
	C76.754417,33.611610 75.352745,35.221291 73.589417,36.904678 
	C72.108925,39.633118 70.990097,42.287849 69.517105,45.110939 
	C68.492645,48.515667 67.822357,51.752041 67.090164,55.379478 
	C66.742271,57.506035 66.456268,59.241528 66.190842,61.311661 
	C65.396622,65.070244 64.581825,68.494194 63.488327,72.091064 
	C63.124676,73.129410 63.039722,73.994835 62.633499,75.041916 
	C61.427979,78.770218 58.088730,81.812073 59.791309,86.083588 
	C57.715561,86.564018 55.954170,86.916100 54.192780,87.268181 
	C54.279297,87.944336 54.365810,88.620483 54.452324,89.296638 
	C58.910816,88.866669 63.369305,88.436707 67.892624,88.434357 
	C68.047745,97.225105 71.225471,104.067352 78.076164,109.453201 
	C79.091110,110.849449 79.985878,111.952019 80.919998,113.376175 
	C81.024803,114.122055 81.090240,114.546333 81.221451,115.346405 
	C81.802681,118.556305 82.318130,121.390411 82.936905,124.792580 
	C83.313011,124.833588 84.572029,124.970856 85.766968,125.405304 
	C84.528885,127.168831 83.354874,128.635193 82.112305,130.369843 
	C82.103745,130.812698 82.163757,130.987289 82.231758,131.248123 
	C82.239754,131.334381 82.174911,131.495056 82.067993,131.366287 
	C81.961067,131.237518 81.632286,131.300461 81.302322,131.453033 
	C77.713844,135.869934 76.512550,140.702301 76.610512,146.141922 
	C67.588120,146.820847 58.953159,147.359955 50.317947,147.894958 
	C43.038734,148.345947 35.759228,148.792160 28.046457,149.267166 
	C30.407911,162.421005 32.703957,175.210510 35.000000,188.000000 
M38.399059,55.940899 
	C33.992630,57.546749 34.492928,60.419273 36.300999,63.743660 
	C39.361286,69.370407 43.695713,66.155441 46.622936,64.401337 
	C48.817337,63.086365 49.545357,59.324326 50.926247,56.651783 
	C48.461563,55.701984 46.059669,54.400417 43.506786,53.944706 
	C42.146679,53.701920 40.525436,54.921974 38.399059,55.940899 
M48.724545,7.119615 
	C48.532192,6.575866 48.339840,6.032117 48.147484,5.488368 
	C47.868641,5.615816 47.589794,5.743264 47.310955,5.870710 
	C47.637093,6.430439 47.963234,6.990167 48.724545,7.119615 
M69.738983,104.184242 
	C69.624329,104.026222 69.509674,103.868202 69.395020,103.710182 
	C69.418198,103.930046 69.441376,104.149902 69.738983,104.184242 
M66.517822,91.405174 
	C66.517822,91.405174 66.589035,91.522461 66.517822,91.405174 
M146.517136,19.411613 
	C146.517136,19.411613 146.583786,19.523146 146.517136,19.411613 
z"/>
<path fill="#A14D38" opacity="1.000000" stroke="none" 
	d="
M82.223763,131.161865 
	C82.163757,130.987289 82.103745,130.812698 82.544434,130.356049 
	C84.726883,129.189560 86.549049,128.496155 88.062851,127.383308 
	C91.910088,124.555077 94.833717,124.942711 97.435715,128.565414 
	C101.415741,134.106766 110.964386,139.452927 116.355377,135.981171 
	C117.124290,135.955170 117.562401,135.907471 118.414413,135.919830 
	C120.219780,135.941574 121.611244,135.903259 123.337570,135.924500 
	C124.727547,135.678528 125.782654,135.372986 126.960815,135.279587 
	C127.413467,135.336823 127.743065,135.181931 128.393677,134.982071 
	C129.488129,134.566101 130.261566,134.195068 131.309494,133.812210 
	C131.862289,133.573776 132.140579,133.347183 132.728378,133.107956 
	C134.049286,132.442627 135.060669,131.789963 136.386932,131.018661 
	C137.524048,129.658325 138.346298,128.416611 139.603134,127.114899 
	C144.345062,127.730278 148.652420,128.405670 153.088867,129.392670 
	C155.490067,132.837601 159.152817,135.740448 159.719086,139.156555 
	C160.644806,144.741043 159.855988,150.691818 159.248108,156.430618 
	C158.135544,166.933945 154.090759,177.209381 157.000000,188.000000 
	C152.643097,188.000000 148.286194,188.000000 143.509644,187.643677 
	C143.399841,186.705704 143.641464,186.073425 144.029892,185.550125 
	C148.772308,179.161011 148.036774,177.016235 140.422241,175.356354 
	C138.972778,175.040390 137.458023,175.023956 135.984253,174.416534 
	C136.418259,168.470398 136.841370,162.977066 137.260468,157.535812 
	C135.746750,157.996643 133.945770,158.400391 134.668121,162.146790 
	C135.314072,165.496994 134.260117,169.174973 133.998657,172.214874 
	C131.445374,172.943741 129.754135,173.426529 127.591324,173.941284 
	C117.743210,173.315857 108.000061,176.049179 98.873825,170.656738 
	C97.790520,169.457581 96.423737,168.668243 96.172684,167.613373 
	C94.990021,162.644104 93.824760,157.636703 93.216431,152.575226 
	C92.708336,148.347748 90.511162,147.034866 86.651840,146.938934 
	C84.423203,146.883545 82.209045,146.245590 79.957695,145.549042 
	C79.905083,144.175476 79.929619,143.119278 79.852829,142.070511 
	C79.579216,138.333527 84.585518,135.473038 81.632286,131.300461 
	C81.632286,131.300461 81.961067,131.237518 82.331284,131.482513 
	C82.825394,131.667496 82.949295,131.607468 83.073196,131.547440 
	C82.790054,131.418915 82.506912,131.290390 82.223763,131.161865 
z"/>
<path fill="#C3BED0" opacity="1.000000" stroke="none" 
	d="
M79.988373,145.869827 
	C82.209045,146.245590 84.423203,146.883545 86.651840,146.938934 
	C90.511162,147.034866 92.708336,148.347748 93.216431,152.575226 
	C93.824760,157.636703 94.990021,162.644104 96.172684,167.613373 
	C96.423737,168.668243 97.790520,169.457581 98.689697,170.919891 
	C98.180138,172.290588 97.624130,173.110626 97.046318,174.330368 
	C98.021904,177.820221 99.019279,180.910385 99.999321,184.377563 
	C100.618401,185.293152 101.254814,185.831741 101.742355,186.651337 
	C101.728996,187.288239 101.864502,187.644119 102.000000,188.000000 
	C79.979103,188.000000 57.958210,188.000000 35.468658,188.000000 
	C32.703957,175.210510 30.407911,162.421005 28.046457,149.267166 
	C35.759228,148.792160 43.038734,148.345947 50.317947,147.894958 
	C58.953159,147.359955 67.588120,146.820847 76.985725,146.139923 
	C78.494972,145.954163 79.241669,145.912003 79.988373,145.869827 
M59.196510,168.144180 
	C58.455036,172.239243 56.963184,176.372177 57.167427,180.419510 
	C57.407391,185.174713 61.999439,184.447556 64.860565,183.734238 
	C66.673401,183.282288 67.898766,180.473953 69.387604,178.722427 
	C65.720055,176.021545 64.942474,171.942978 64.108284,167.107498 
	C64.351845,165.563141 64.595413,164.018784 64.884697,162.184555 
	C62.379177,162.377243 60.386162,162.530518 58.493584,162.676071 
	C59.017895,164.583405 59.483215,166.276123 59.196510,168.144180 
z"/>
<path fill="#FEFEFD" opacity="1.000000" stroke="none" 
	d="
M157.471191,188.000000 
	C154.090759,177.209381 158.135544,166.933945 159.248108,156.430618 
	C159.855988,150.691818 160.644806,144.741043 159.719086,139.156555 
	C159.152817,135.740448 155.490067,132.837601 153.094635,128.998993 
	C152.832809,127.661072 152.842758,126.566277 152.533020,126.466789 
	C149.213654,125.400581 145.867050,123.851341 142.480850,123.728096 
	C139.382050,123.615303 137.039703,123.508392 136.263000,120.085342 
	C136.724548,119.662331 136.931168,119.358627 137.347488,119.023453 
	C137.557205,118.991974 137.976746,118.929718 138.114075,119.229141 
	C141.141022,122.481094 142.212189,118.865257 144.431549,117.973877 
	C147.034012,118.104515 149.277313,118.521935 151.418350,118.218338 
	C158.928833,117.153343 164.557175,112.814522 168.518417,106.687134 
	C169.977890,104.429573 171.161652,104.636826 173.000000,105.000000 
	C173.000000,132.666733 173.000000,160.333466 173.000000,188.000000 
	C167.897491,188.000000 162.919937,188.000000 157.471191,188.000000 
z"/>
<path fill="#C48E7E" opacity="1.000000" stroke="none" 
	d="
M97.068115,173.930679 
	C97.624130,173.110626 98.180138,172.290588 98.920273,171.207397 
	C108.000061,176.049179 117.743210,173.315857 127.979965,174.013641 
	C131.217911,174.325775 133.595657,174.597549 135.973389,174.869324 
	C137.458023,175.023956 138.972778,175.040390 140.422241,175.356354 
	C148.036774,177.016235 148.772308,179.161011 144.029892,185.550125 
	C143.641464,186.073425 143.399841,186.705704 143.045013,187.643677 
	C135.979050,188.000000 128.958099,188.000000 121.271912,187.718445 
	C120.579903,187.209473 120.553139,186.982086 120.792511,186.561401 
	C121.438622,185.252090 124.996765,184.233444 121.127197,182.718735 
	C121.074074,182.268845 121.055962,182.088516 120.968628,181.530151 
	C118.270264,180.448975 115.641106,179.745865 112.686165,179.050476 
	C111.871941,179.666809 111.383492,180.275436 110.825256,181.215485 
	C110.740593,181.772217 110.725716,181.997528 110.624680,182.263306 
	C110.538513,182.303757 110.393326,182.180603 110.219330,181.895813 
	C109.724510,181.303558 109.403671,180.996094 109.016296,180.370422 
	C105.441696,177.133453 98.849770,180.200333 97.068115,173.930679 
z"/>
<path fill="#496545" opacity="1.000000" stroke="none" 
	d="
M173.000000,104.562500 
	C171.161652,104.636826 169.977890,104.429573 168.518417,106.687134 
	C164.557175,112.814522 158.928833,117.153343 151.418350,118.218338 
	C149.277313,118.521935 147.034012,118.104515 144.312286,117.687347 
	C142.860779,117.523018 141.934631,117.689095 141.004471,117.546356 
	C141.001114,116.825768 141.001770,116.413994 141.256439,115.983551 
	C141.773727,115.660118 142.037003,115.355362 142.300278,115.050598 
	C142.021713,114.918884 141.743134,114.787170 141.464569,114.655464 
	C141.308990,115.102905 141.153412,115.550346 140.651764,116.001854 
	C139.099274,116.195740 137.892838,116.385551 135.219467,116.806160 
	C136.748978,112.840057 137.874832,109.920654 139.266541,107.179489 
	C140.458313,107.333519 142.055801,107.577232 142.191269,107.237671 
	C142.714584,105.925995 142.771286,104.428162 143.372833,102.958649 
	C149.398056,100.602249 147.780487,104.533646 147.290512,107.932312 
	C149.118805,107.932312 150.741379,107.932312 152.363968,107.932312 
	C152.007111,106.674309 151.515320,105.433884 151.348251,104.151161 
	C151.259933,103.473038 151.736923,102.721291 152.100876,102.161560 
	C152.159821,101.876282 152.076599,101.432228 151.996597,100.994278 
	C151.999817,101.000374 152.008240,101.011276 152.010956,100.610962 
	C152.021866,99.144455 152.030075,98.078278 152.479950,97.008469 
	C155.281082,97.003441 157.640533,97.002029 160.005096,97.374847 
	C162.228180,104.896599 162.379639,104.122787 170.453705,102.344437 
	C170.636597,100.896187 170.819534,99.447937 171.335373,98.000076 
	C172.112198,98.000298 172.556091,98.000145 173.000000,98.000000 
	C173.000000,100.041664 173.000000,102.083336 173.000000,104.562500 
M151.185822,114.764320 
	C152.015717,114.184784 152.845596,113.605240 154.532639,112.427132 
	C152.191315,112.427132 150.751785,112.065147 149.715164,112.555275 
	C149.031937,112.878319 148.928635,114.427956 148.565674,115.428360 
	C149.301010,115.380188 150.036362,115.332016 151.185822,114.764320 
z"/>
<path fill="#FDFDF9" opacity="1.000000" stroke="none" 
	d="
M168.192627,48.997055 
	C169.572830,49.644459 170.953033,50.291862 172.666626,50.969635 
	C173.000000,65.354225 173.000000,79.708458 172.665573,94.383514 
	C171.175720,91.801491 170.020294,88.898628 168.929993,85.570992 
	C168.613861,81.769493 168.232574,78.392784 167.920868,74.681168 
	C167.940872,73.895554 167.891281,73.444847 167.916000,72.631851 
	C168.047607,71.532852 168.104904,70.796150 168.111923,70.054268 
	C168.061661,70.049095 168.075745,70.149162 168.311371,70.042343 
	C168.632294,69.636551 168.717606,69.337578 168.864487,68.578827 
	C168.551254,63.400623 168.176468,58.682209 167.886215,53.555809 
	C168.044724,51.764233 168.118668,50.380642 168.192627,48.997055 
z"/>
<path fill="#475B44" opacity="1.000000" stroke="none" 
	d="
M168.864853,85.995773 
	C170.020294,88.898628 171.175720,91.801491 172.665573,94.852173 
	C173.000000,95.750000 173.000000,96.500000 173.000000,97.625000 
	C172.556091,98.000145 172.112198,98.000298 171.168198,97.754593 
	C170.113190,97.337532 169.558273,97.166328 168.994202,96.633469 
	C166.990738,94.181427 164.996414,92.091026 163.097595,89.750076 
	C163.129349,88.667984 163.065582,87.836433 163.276947,86.758186 
	C164.914612,81.607361 161.089874,83.427414 159.076279,82.623795 
	C161.101913,81.832031 163.050644,81.415863 165.144714,81.334160 
	C166.481659,83.111008 167.673248,84.553391 168.864853,85.995773 
z"/>
<path fill="#BDB7CA" opacity="1.000000" stroke="none" 
	d="
M113.011940,179.042755 
	C115.641106,179.745865 118.270264,180.448975 120.707092,181.714081 
	C120.338966,182.857346 120.163177,183.438629 119.993622,184.010040 
	C119.999855,184.000198 120.015366,183.982880 119.805405,184.027100 
	C119.513252,184.186340 119.345352,184.386536 119.362030,184.403305 
	C119.547348,184.589783 119.761230,184.747849 119.979942,185.166168 
	C120.170448,185.864044 120.348412,186.309372 120.526375,186.754700 
	C120.553139,186.982086 120.579903,187.209473 120.803329,187.718445 
	C117.638710,188.000000 114.277428,188.000000 110.332970,187.696960 
	C109.806152,186.962463 109.862511,186.530991 109.983070,185.881012 
	C110.047272,185.662506 110.071884,185.207916 110.409103,185.158539 
	C111.413307,184.534973 112.080292,183.960815 112.747269,183.386642 
	C112.068466,182.998703 111.389656,182.610764 110.710846,182.222839 
	C110.725716,181.997528 110.740593,181.772217 111.153770,181.213684 
	C112.038696,180.267883 112.525322,179.655319 113.011940,179.042755 
z"/>
<path fill="#F9FBFB" opacity="1.000000" stroke="none" 
	d="
M33.994499,3.829264 
	C33.675156,3.089206 33.355812,2.349147 33.018234,1.304544 
	C35.700020,1.000000 38.400043,1.000000 41.550034,1.000000 
	C41.992985,1.475901 41.985970,1.951802 41.721481,2.739621 
	C41.464005,3.051539 40.983768,3.164935 40.581181,3.095129 
	C38.117229,3.293304 36.055862,3.561284 33.994499,3.829264 
z"/>
<path fill="#382D39" opacity="1.000000" stroke="none" 
	d="
M109.918869,186.099518 
	C109.862511,186.530991 109.806152,186.962463 109.874901,187.696960 
	C109.250000,188.000000 108.500000,188.000000 107.294998,187.739288 
	C106.316780,187.026428 105.793556,186.574280 105.652069,186.053024 
	C107.328827,186.022461 108.623840,186.060989 109.918869,186.099518 
z"/>
<path fill="#928793" opacity="1.000000" stroke="none" 
	d="
M105.270340,186.122116 
	C105.793556,186.574280 106.316780,187.026428 106.919998,187.739288 
	C105.611107,188.000000 104.222221,188.000000 102.416672,188.000000 
	C101.864502,187.644119 101.728996,187.288239 102.061928,186.499176 
	C103.001053,186.037033 103.471741,186.008057 104.275299,186.006897 
	C104.828880,186.063843 105.049606,186.092987 105.270340,186.122116 
z"/>
<path fill="#F9FBFB" opacity="1.000000" stroke="none" 
	d="
M48.666668,1.000000 
	C48.699596,1.836698 48.399193,2.673395 48.098785,3.510093 
	C47.735886,2.904090 47.372990,2.298087 47.005047,1.346042 
	C47.444447,1.000000 47.888889,1.000000 48.666668,1.000000 
z"/>
<path fill="#553026" opacity="1.000000" stroke="none" 
	d="
M78.880783,31.962162 
	C79.570816,30.620750 79.920898,28.834044 81.003830,28.007278 
	C91.075371,20.318174 102.608932,17.890831 115.702042,19.386715 
	C119.510498,20.149809 122.662613,20.526979 126.185188,20.932116 
	C127.977974,21.305443 129.400299,21.650806 131.041870,22.303139 
	C136.186157,21.932198 141.118042,20.804058 146.386871,22.903130 
	C148.500870,23.344610 150.230057,23.716419 151.959244,24.088230 
	C152.399185,24.724693 152.839127,25.361156 153.739655,26.365757 
	C156.130234,28.165133 158.060211,29.596369 159.990173,31.027609 
	C160.449860,31.966562 160.909561,32.905514 161.778870,34.273052 
	C162.499664,35.456280 162.810852,36.210922 162.766449,36.978050 
	C161.936523,37.000011 161.462204,37.009491 160.850143,36.692207 
	C156.248398,33.633385 151.788818,30.893749 147.273468,28.249353 
	C147.212662,28.213743 146.446686,29.382240 145.728760,30.238489 
	C145.300308,31.994530 145.152924,33.500813 145.002762,35.434937 
	C145.001740,37.576260 145.003464,39.289734 144.758453,41.010300 
	C144.511703,41.017391 144.018082,41.025921 143.702621,41.051746 
	C142.591309,41.717491 141.795441,42.357407 140.709778,42.856239 
	C139.520584,42.236450 138.621185,41.757736 137.175171,40.988075 
	C137.789230,42.992790 138.175888,44.255112 138.730453,46.065655 
	C135.935715,45.862732 133.717392,45.701664 131.081177,45.510254 
	C131.475357,46.523869 131.758453,47.251835 132.029053,48.421677 
	C131.352188,51.908108 130.687805,54.952675 129.838791,57.714134 
	C124.809578,49.608910 118.266533,45.289246 108.647781,47.021389 
	C104.129715,47.835007 99.569214,48.413052 95.018448,48.721703 
	C94.665596,47.222179 94.322250,46.098804 93.964478,44.679516 
	C93.635498,43.918056 93.320938,43.452515 93.005745,42.745010 
	C93.005112,42.503048 93.007683,42.019127 93.226288,41.908646 
	C93.716957,41.595200 93.900810,41.330864 93.936562,40.642704 
	C92.223663,39.510468 90.625900,38.571957 88.905350,38.008278 
	C85.916954,37.029247 83.541489,35.714798 83.818024,31.733265 
	C82.051369,31.633860 80.466080,31.798012 78.880783,31.962162 
M85.410736,31.483313 
	C85.410736,31.483313 85.523834,31.415472 85.410736,31.483313 
z"/>
<path fill="#3D463A" opacity="1.000000" stroke="none" 
	d="
M77.955978,109.159515 
	C71.225471,104.067352 68.047745,97.225105 67.955284,88.050339 
	C67.328918,86.188660 66.704712,85.138634 66.112717,83.727814 
	C67.379662,83.101440 68.614403,82.835854 69.849152,82.570267 
	C69.906853,84.047974 69.964546,85.525673 70.122192,87.223991 
	C70.414200,87.722725 70.673119,87.906891 71.217651,87.887733 
	C71.711281,87.580162 71.899277,87.319328 72.428879,86.996979 
	C81.160583,87.020538 84.806190,90.024467 84.576225,96.997574 
	C79.336967,96.325493 78.610046,99.179031 78.695633,103.152298 
	C78.245758,105.259895 78.100868,107.209702 77.955978,109.159515 
z"/>
<path fill="#675A4D" opacity="1.000000" stroke="none" 
	d="
M63.767025,71.918144 
	C64.581825,68.494194 65.396622,65.070244 66.520645,61.279385 
	C67.882149,60.612373 68.934425,60.312271 69.997559,60.400375 
	C71.709457,62.190868 73.221138,64.010368 75.159370,64.890083 
	C77.594131,65.995163 80.378204,66.330620 83.002518,67.376686 
	C82.463875,69.259651 81.671028,70.736633 81.509789,72.279610 
	C81.422241,73.117355 82.409454,74.067413 83.006882,75.325294 
	C83.366371,77.125710 83.630852,78.567635 83.521599,79.996437 
	C79.979836,77.014008 76.766800,74.211273 72.013702,76.688583 
	C71.654182,75.932640 71.328201,75.471855 70.834946,74.691437 
	C68.367447,73.553925 66.067238,72.736031 63.767025,71.918144 
z"/>
<path fill="#5A3B2B" opacity="1.000000" stroke="none" 
	d="
M67.152069,54.988415 
	C67.822357,51.752041 68.492645,48.515667 69.859146,45.279312 
	C75.034958,46.850586 79.514557,48.421833 84.369385,49.995659 
	C85.495056,49.995800 86.245499,49.993362 86.999634,50.343071 
	C87.375854,51.482719 87.748390,52.270229 87.990570,53.386234 
	C86.953644,55.835327 86.047081,57.955925 84.863831,59.960670 
	C84.058151,59.565472 83.529160,59.286121 82.618225,58.957550 
	C77.274300,57.347404 72.538994,54.914158 67.152069,54.988415 
z"/>
<path fill="#290D0F" opacity="1.000000" stroke="none" 
	d="
M28.885492,40.044384 
	C26.547947,37.055099 25.474886,33.846008 29.695564,31.893435 
	C34.504387,29.668777 36.526833,26.842499 34.045586,21.716101 
	C33.719131,21.041626 34.168373,20.024252 33.934746,19.265310 
	C33.491360,17.824968 32.809254,15.268658 32.233978,15.270767 
	C30.101730,15.278581 27.972609,16.139652 25.124611,16.850113 
	C23.920670,17.003677 23.434433,16.987303 23.011528,16.613939 
	C27.156103,10.232815 33.727131,10.106442 39.089214,16.224712 
	C39.469643,17.938410 39.738235,19.378508 39.776886,21.049059 
	C39.442814,23.004686 39.580887,24.789783 39.172695,26.439737 
	C38.672554,28.461353 38.025547,30.579039 36.881023,32.277035 
	C35.263569,34.676662 33.132397,36.730019 30.917870,39.046463 
	C30.038445,39.455818 29.461967,39.750099 28.885492,40.044384 
z"/>
<path fill="#6D392B" opacity="1.000000" stroke="none" 
	d="
M86.995949,49.990929 
	C86.245499,49.993362 85.495056,49.995800 84.405724,49.645317 
	C84.650146,48.012760 85.233459,46.733124 86.143982,44.735668 
	C83.719742,44.077290 81.765465,43.305019 79.747566,43.062828 
	C77.488197,42.791649 75.171219,43.000553 72.314537,43.000553 
	C72.980347,41.010265 73.479134,39.519257 74.039948,38.164921 
	C74.194405,38.346420 74.286827,38.391243 74.379250,38.436066 
	C74.262650,38.282898 74.146057,38.129730 74.012299,37.690002 
	C73.980461,37.212612 73.965767,37.021793 73.951073,36.830971 
	C75.352745,35.221291 76.754417,33.611610 78.518440,31.982046 
	C80.466080,31.798012 82.051369,31.633860 83.469681,31.768906 
	C82.075577,32.514217 80.848450,32.960331 79.632629,33.402340 
	C81.506485,39.352039 86.857445,42.122208 93.996429,41.005154 
	C93.900810,41.330864 93.716957,41.595200 93.056862,41.990696 
	C92.781357,42.451141 92.893867,42.719055 93.006378,42.986973 
	C93.320938,43.452515 93.635498,43.918056 93.602524,44.726746 
	C91.168640,46.710239 89.082298,48.350586 86.995949,49.990929 
z"/>
<path fill="#5B4033" opacity="1.000000" stroke="none" 
	d="
M160.987885,37.018967 
	C161.462204,37.009491 161.936523,37.000011 163.082016,37.129425 
	C164.874710,39.619652 165.996246,41.970982 167.117783,44.322311 
	C167.117783,44.322311 167.350677,44.597744 167.478851,44.552219 
	C167.607010,44.506695 167.599213,44.581470 167.599213,44.581470 
	C167.439392,44.760353 167.279587,44.939232 167.084274,45.687645 
	C167.355011,46.530750 167.661255,46.804325 167.967514,47.077900 
	C167.998276,47.506985 168.029053,47.936069 168.126221,48.681103 
	C168.118668,50.380642 168.044724,51.764233 167.565887,53.557533 
	C166.431946,54.298542 165.702866,54.629845 164.732086,54.800713 
	C164.337463,54.092297 164.184540,53.544312 164.185059,52.811150 
	C163.895813,51.753407 163.453125,50.880836 163.149994,49.952560 
	C163.190338,49.927799 163.091110,49.958740 162.655914,50.140301 
	C156.210464,51.854919 150.101013,53.418915 144.005005,54.596153 
	C148.350906,52.133083 152.683350,50.056767 157.008820,47.987617 
	C157.001831,47.994785 157.014313,47.990192 157.114990,48.209770 
	C157.408737,48.703880 157.666290,48.888462 158.397736,48.986526 
	C162.092728,49.257553 162.163513,47.283497 161.814682,44.841545 
	C161.444138,42.247581 161.255798,39.627590 160.987885,37.018967 
z"/>
<path fill="#1D0C10" opacity="1.000000" stroke="none" 
	d="
M40.983768,3.164935 
	C40.983768,3.164935 41.464005,3.051539 41.706631,3.096287 
	C44.275166,13.819792 46.601074,24.498549 48.905319,35.077835 
	C45.354527,36.823746 42.781338,38.088974 39.745605,39.631271 
	C39.314674,39.217590 39.291183,38.518757 39.390980,37.837997 
	C39.535751,36.850430 39.769569,35.875908 40.218491,34.648598 
	C41.405792,32.938072 42.340012,31.474766 43.534012,29.969322 
	C43.438946,25.748835 43.167950,21.561211 42.707115,17.394585 
	C42.181961,12.646387 39.511948,8.159290 40.983768,3.164935 
z"/>
<path fill="#1E0E0D" opacity="1.000000" stroke="none" 
	d="
M38.710560,55.711334 
	C40.525436,54.921974 42.146679,53.701920 43.506786,53.944706 
	C46.059669,54.400417 48.461563,55.701984 50.926247,56.651783 
	C49.545357,59.324326 48.817337,63.086365 46.622936,64.401337 
	C43.695713,66.155441 39.361286,69.370407 36.300999,63.743660 
	C34.492928,60.419273 33.992630,57.546749 38.710560,55.711334 
M40.010757,62.369564 
	C43.473606,62.433727 46.352882,61.786198 46.316631,57.552429 
	C43.742672,58.564758 39.129471,56.475693 40.010757,62.369564 
z"/>
<path fill="#1C1012" opacity="1.000000" stroke="none" 
	d="
M22.948196,16.970930 
	C23.434433,16.987303 23.920670,17.003677 24.771458,17.035320 
	C24.371952,18.402283 23.607895,19.753971 22.759178,21.255432 
	C18.779886,17.274107 15.137821,13.647363 11.516356,10.000164 
	C9.472445,7.941731 10.331470,6.384511 12.742691,6.061900 
	C19.180576,5.200540 25.662947,4.671660 32.568123,4.465052 
	C33.002689,5.914975 32.996773,6.910483 32.631836,7.964156 
	C31.547621,8.076681 30.822432,8.131042 29.846272,7.872535 
	C27.385603,8.020873 25.175901,8.482078 22.571712,8.977022 
	C21.121719,9.005335 20.066212,8.999907 18.853317,8.775007 
	C18.139977,8.930526 17.584026,9.305517 16.815750,9.899450 
	C18.718348,12.402571 20.833271,14.686750 22.948196,16.970930 
z"/>
<path fill="#4D4E44" opacity="1.000000" stroke="none" 
	d="
M70.022240,87.003380 
	C69.964546,85.525673 69.906853,84.047974 69.849152,82.570267 
	C68.614403,82.835854 67.379662,83.101440 66.101303,83.702698 
	C66.057701,84.038361 66.111473,84.050728 65.889236,84.119598 
	C65.369293,84.322739 65.157143,84.540382 64.689270,84.997437 
	C62.933891,85.420708 61.519779,85.687965 60.105671,85.955223 
	C58.088730,81.812073 61.427979,78.770218 62.645454,75.410187 
	C63.525818,77.247589 64.072952,78.898392 64.902328,81.400803 
	C66.181511,79.046906 66.772163,77.960014 67.833061,76.007790 
	C67.929520,77.738075 67.965088,78.376167 68.140793,79.294113 
	C70.971504,82.463684 71.020058,79.125092 72.280891,78.233353 
	C73.581558,79.313301 74.511932,80.324127 75.651970,80.957642 
	C77.702370,82.097031 79.878525,83.010101 81.940491,84.362274 
	C80.760742,84.827110 79.610901,84.821587 78.531219,85.094086 
	C76.334229,85.648582 74.175117,86.353149 72.000397,86.995872 
	C71.899277,87.319328 71.711281,87.580162 71.111885,87.671600 
	C70.593246,87.294670 70.338203,87.107513 70.022240,87.003380 
z"/>
<path fill="#260C0F" opacity="1.000000" stroke="none" 
	d="
M39.965408,34.895824 
	C39.769569,35.875908 39.535751,36.850430 39.390980,37.837997 
	C39.291183,38.518757 39.314674,39.217590 39.569839,39.957069 
	C39.856617,40.005798 39.999763,40.431614 40.021935,40.953663 
	C40.311340,41.979122 40.578579,42.482533 40.845818,42.985939 
	C40.845818,42.985939 41.006073,43.410069 41.094093,43.864040 
	C41.321930,44.618473 41.540932,44.841026 41.839108,44.985676 
	C42.117519,45.375389 42.395931,45.765102 42.435738,46.596600 
	C42.152676,48.083527 42.108219,49.128670 42.063759,50.173813 
	C42.063759,50.173813 42.048565,50.603962 41.602463,50.755520 
	C38.079056,50.198795 35.529400,46.862442 31.872091,49.043056 
	C30.843782,46.267715 29.815472,43.492371 28.836327,40.380707 
	C29.461967,39.750099 30.038445,39.455818 31.195210,39.245415 
	C32.995117,41.246078 34.214733,43.162865 35.434349,45.079651 
	C35.825825,45.001919 36.217300,44.924191 36.608776,44.846458 
	C36.673862,43.538105 36.738945,42.229752 36.850365,40.597931 
	C36.606865,39.498096 36.317039,38.721729 36.043686,37.717182 
	C36.060158,37.488998 36.063107,37.031456 36.296787,36.857033 
	C36.735733,36.142994 36.941002,35.603382 37.499702,35.064194 
	C38.557228,35.008358 39.261318,34.952091 39.965408,34.895824 
z"/>
<path fill="#3E603E" opacity="1.000000" stroke="none" 
	d="
M81.155685,114.970619 
	C81.090240,114.546333 81.024803,114.122055 81.207718,113.164398 
	C82.596115,107.146393 85.678085,106.218124 90.598572,108.847145 
	C91.540726,108.888512 92.169403,108.950829 92.866982,109.300896 
	C93.258949,109.805099 93.582008,110.021553 93.921936,110.442307 
	C93.938797,110.646606 94.153076,110.996155 94.110779,111.203613 
	C94.068474,111.411064 94.073494,111.834488 94.048164,112.124573 
	C94.013176,112.608536 94.003510,112.802414 93.771133,113.132080 
	C91.215240,115.192795 88.882050,117.117722 86.827454,118.812805 
	C84.748978,117.404793 82.952332,116.187706 81.155685,114.970619 
z"/>
<path fill="#914D40" opacity="1.000000" stroke="none" 
	d="
M116.024582,135.959488 
	C110.964386,139.452927 101.415741,134.106766 97.435715,128.565414 
	C94.833717,124.942711 91.910088,124.555077 88.062851,127.383308 
	C86.549049,128.496155 84.726883,129.189560 82.613007,130.087753 
	C83.354874,128.635193 84.528885,127.168831 86.069855,125.280586 
	C87.005386,124.534508 87.573967,124.210312 88.542549,123.903564 
	C92.089455,123.763779 95.512283,121.014984 98.215073,125.257607 
	C101.619675,130.505081 106.461922,133.201767 112.122978,134.711212 
	C112.112877,134.805405 112.282333,134.890182 112.248672,135.095093 
	C112.469315,135.196732 112.723625,135.093445 113.319267,135.008240 
	C114.448593,135.337357 115.236588,135.648422 116.024582,135.959488 
z"/>
<path fill="#260907" opacity="1.000000" stroke="none" 
	d="
M32.990860,7.905992 
	C32.996773,6.910483 33.002689,5.914975 33.013367,4.546188 
	C33.181908,4.118609 33.345688,4.064307 33.751984,3.919635 
	C36.055862,3.561284 38.117229,3.293304 40.581181,3.095129 
	C39.511948,8.159290 42.181961,12.646387 42.707115,17.394585 
	C43.167950,21.561211 43.438946,25.748835 43.443321,29.573235 
	C42.064178,26.419058 41.035507,23.618834 40.006832,20.818607 
	C39.738235,19.378508 39.469643,17.938410 39.103363,15.845009 
	C38.844719,13.291998 38.683762,11.392289 38.499722,9.220114 
	C36.661430,8.781595 34.826145,8.343794 32.990860,7.905992 
z"/>
<path fill="#572D21" opacity="1.000000" stroke="none" 
	d="
M73.589417,36.904678 
	C73.965767,37.021793 73.980461,37.212612 73.998184,37.701710 
	C74.001213,37.999985 73.977921,38.028244 73.977921,38.028244 
	C73.479134,39.519257 72.980347,41.010265 72.314537,43.000553 
	C75.171219,43.000553 77.488197,42.791649 79.747566,43.062828 
	C81.765465,43.305019 83.719742,44.077290 86.143982,44.735668 
	C85.233459,46.733124 84.650146,48.012760 84.030502,49.642738 
	C79.514557,48.421833 75.034958,46.850586 70.213318,45.110958 
	C70.990097,42.287849 72.108925,39.633118 73.589417,36.904678 
z"/>
<path fill="#476046" opacity="1.000000" stroke="none" 
	d="
M88.142548,123.886124 
	C87.573967,124.210312 87.005386,124.534508 86.133926,124.983414 
	C84.572029,124.970856 83.313011,124.833588 82.936905,124.792580 
	C82.318130,121.390411 81.802681,118.556305 81.221451,115.346405 
	C82.952332,116.187706 84.748978,117.404793 86.827454,118.812805 
	C88.882050,117.117722 91.215240,115.192795 93.774521,113.532181 
	C94.024002,114.596077 94.047394,115.395638 93.923935,116.492188 
	C91.898895,119.154823 90.020721,121.520477 88.142548,123.886124 
z"/>
<path fill="#44563F" opacity="1.000000" stroke="none" 
	d="
M90.285095,108.868095 
	C85.678085,106.218124 82.596115,107.146393 81.168365,112.842804 
	C79.985878,111.952019 79.091110,110.849449 78.076164,109.453201 
	C78.100868,107.209702 78.245758,105.259895 79.020248,103.199722 
	C83.345024,106.982353 83.986961,101.506821 86.504097,101.166534 
	C87.947006,103.881561 89.116051,106.374825 90.285095,108.868095 
z"/>
<path fill="#644738" opacity="1.000000" stroke="none" 
	d="
M67.090172,55.379478 
	C72.538994,54.914158 77.274300,57.347404 82.428833,59.295563 
	C78.409813,59.792591 74.198257,59.902382 69.986702,60.012173 
	C68.934425,60.312271 67.882149,60.612373 66.500061,60.944748 
	C66.456268,59.241528 66.742271,57.506035 67.090172,55.379478 
z"/>
<path fill="#FDF8F6" opacity="1.000000" stroke="none" 
	d="
M146.002075,22.833458 
	C141.118042,20.804058 136.186157,21.932198 131.110077,21.911749 
	C130.703171,19.474419 130.447296,17.735449 130.191422,15.996479 
	C132.582977,18.269335 134.924911,18.755905 138.389740,17.688507 
	C140.197021,17.131742 142.974106,19.723001 145.657166,21.251667 
	C146.001465,22.018457 146.001770,22.425959 146.002075,22.833458 
z"/>
<path fill="#4A3432" opacity="1.000000" stroke="none" 
	d="
M130.048462,15.663593 
	C130.447296,17.735449 130.703171,19.474419 130.890823,21.604778 
	C129.400299,21.650806 127.977974,21.305443 126.253723,20.561470 
	C124.477386,17.504477 123.002968,14.846093 121.528542,12.187710 
	C122.185196,11.496283 123.324158,10.137043 123.427521,10.211698 
	C125.656532,11.821557 127.769836,13.591615 130.048462,15.663593 
z"/>
<path fill="#5D5A4F" opacity="1.000000" stroke="none" 
	d="
M68.000656,79.014267 
	C67.965088,78.376167 67.929520,77.738075 67.833061,76.007790 
	C66.772163,77.960014 66.181511,79.046906 64.902328,81.400803 
	C64.072952,78.898392 63.525818,77.247589 62.966724,75.228516 
	C63.039722,73.994835 63.124676,73.129410 63.488327,72.091064 
	C66.067238,72.736031 68.367447,73.553925 70.798965,75.035767 
	C69.953735,76.804565 68.977196,77.909416 68.000656,79.014267 
z"/>
<path fill="#FBF9F2" opacity="1.000000" stroke="none" 
	d="
M121.374176,12.561792 
	C123.002968,14.846093 124.477386,17.504477 125.883270,20.533504 
	C122.662613,20.526979 119.510498,20.149809 116.166534,19.422928 
	C117.723053,17.027437 119.471428,14.981656 121.374176,12.561792 
z"/>
<path fill="#F9FAF6" opacity="1.000000" stroke="none" 
	d="
M59.791309,86.083588 
	C61.519779,85.687965 62.933891,85.420708 64.947639,85.022224 
	C65.735344,84.610909 65.923409,84.330818 66.111473,84.050728 
	C66.111473,84.050728 66.057701,84.038361 66.069107,84.063484 
	C66.704712,85.138634 67.328918,86.188660 67.890457,87.622711 
	C63.369305,88.436707 58.910816,88.866669 54.452324,89.296638 
	C54.365810,88.620483 54.279297,87.944336 54.192780,87.268181 
	C55.954170,86.916100 57.715561,86.564018 59.791309,86.083588 
z"/>
<path fill="#914D40" opacity="1.000000" stroke="none" 
	d="
M79.957695,145.549042 
	C79.241669,145.912003 78.494972,145.954163 77.373055,145.998322 
	C76.512550,140.702301 77.713844,135.869934 81.302322,131.453033 
	C84.585518,135.473038 79.579216,138.333527 79.852829,142.070511 
	C79.929619,143.119278 79.905083,144.175476 79.957695,145.549042 
z"/>
<path fill="#1D0C10" opacity="1.000000" stroke="none" 
	d="
M31.928488,49.429611 
	C35.529400,46.862442 38.079056,50.198795 41.513447,50.951458 
	C35.729950,55.416637 33.787083,55.184792 31.928488,49.429611 
z"/>
<path fill="#FDFDF9" opacity="1.000000" stroke="none" 
	d="
M167.463638,44.166634 
	C165.996246,41.970982 164.874710,39.619652 163.437622,37.116943 
	C162.810852,36.210922 162.499664,35.456280 162.075897,34.401855 
	C165.589188,32.610172 167.134567,35.005939 167.844345,37.747509 
	C168.350204,39.701355 167.856918,41.913868 167.463638,44.166634 
z"/>
<path fill="#FDFDF9" opacity="1.000000" stroke="none" 
	d="
M159.993958,30.634941 
	C158.060211,29.596369 156.130234,28.165133 154.079697,26.422066 
	C158.626511,23.608257 159.608353,26.492352 159.993958,30.634941 
z"/>
<path fill="#FDFDF9" opacity="1.000000" stroke="none" 
	d="
M146.386871,22.903130 
	C146.001770,22.425959 146.001465,22.018457 146.001495,21.305326 
	C148.050781,21.857138 151.624146,18.878181 152.076233,23.774059 
	C150.230057,23.716419 148.500870,23.344610 146.386871,22.903130 
z"/>
<path fill="#F9FBFB" opacity="1.000000" stroke="none" 
	d="
M48.506958,7.334755 
	C47.963234,6.990167 47.637093,6.430439 47.310951,5.870711 
	C47.589794,5.743264 47.868641,5.615816 48.147484,5.488368 
	C48.339840,6.032117 48.532192,6.575866 48.506958,7.334755 
z"/>
<path fill="#1D0C10" opacity="1.000000" stroke="none" 
	d="
M42.384102,50.124886 
	C42.108219,49.128670 42.152676,48.083527 42.517700,46.954308 
	C42.793659,47.938805 42.749050,49.007381 42.384102,50.124886 
z"/>
<path fill="#1D0C10" opacity="1.000000" stroke="none" 
	d="
M40.918419,42.667786 
	C40.578579,42.482533 40.311340,41.979122 40.042568,41.177330 
	C40.357693,41.369175 40.674358,41.859406 40.918419,42.667786 
z"/>
<path fill="#F9FAF6" opacity="1.000000" stroke="none" 
	d="
M69.601768,104.277008 
	C69.441376,104.149902 69.418198,103.930046 69.395020,103.710182 
	C69.509674,103.868202 69.624329,104.026222 69.601768,104.277008 
z"/>
<path fill="#F9FAF6" opacity="1.000000" stroke="none" 
	d="
M66.553429,91.463821 
	C66.589035,91.522461 66.517822,91.405174 66.553429,91.463821 
z"/>
<path fill="#FDFDF9" opacity="1.000000" stroke="none" 
	d="
M146.550461,19.467381 
	C146.583786,19.523146 146.517136,19.411613 146.550461,19.467381 
z"/>
<path fill="#FDFDF9" opacity="1.000000" stroke="none" 
	d="
M167.827255,46.734074 
	C167.661255,46.804325 167.355011,46.530750 167.121979,46.045464 
	C167.359131,46.019249 167.523071,46.204750 167.827255,46.734074 
z"/>
<path fill="#FDFDF9" opacity="1.000000" stroke="none" 
	d="
M167.645203,44.865845 
	C167.599213,44.581470 167.607010,44.506695 167.636398,44.464466 
	C167.796524,44.731232 167.927246,45.040226 168.057983,45.349220 
	C167.935730,45.282887 167.813461,45.216553 167.645203,44.865845 
z"/>
<path fill="#1D0C10" opacity="1.000000" stroke="none" 
	d="
M41.885551,44.716515 
	C41.540932,44.841026 41.321930,44.618473 41.114647,44.089806 
	C41.342121,44.056847 41.637058,44.252098 41.885551,44.716515 
z"/>
<path fill="#914D40" opacity="1.000000" stroke="none" 
	d="
M82.231758,131.248123 
	C82.506912,131.290390 82.790054,131.418915 83.073196,131.547440 
	C82.949295,131.607468 82.825394,131.667496 82.438202,131.611298 
	C82.174911,131.495056 82.239754,131.334381 82.231758,131.248123 
z"/>
<path fill="#F1C9C3" opacity="1.000000" stroke="none" 
	d="
M116.355377,135.981171 
	C115.236588,135.648422 114.448593,135.337357 113.145874,134.980042 
	C112.631142,134.933777 112.282333,134.890182 112.282333,134.890182 
	C112.282333,134.890182 112.112877,134.805405 112.006729,134.343430 
	C111.545303,130.151245 111.190025,126.421028 110.905106,122.281860 
	C110.950500,119.931091 110.925545,117.989265 111.183105,115.821228 
	C111.637444,114.269196 111.809258,112.943375 111.951591,111.845024 
	C110.256287,111.473244 109.123787,111.224884 108.038925,110.659279 
	C109.046616,109.235924 110.006676,108.129822 111.247551,106.827408 
	C112.690544,106.084846 113.852737,105.538589 115.386780,104.997993 
	C118.196632,106.423958 120.634644,107.844261 123.072647,109.264565 
	C123.063843,109.092171 123.055046,108.919785 123.046249,108.747398 
	C124.823013,109.152901 126.599785,109.558403 129.145157,110.139328 
	C126.254814,112.104645 124.541634,113.269547 122.828453,114.434448 
	C123.146233,114.946587 123.464020,115.458725 123.781807,115.970863 
	C126.493919,114.988983 129.206024,114.007103 132.014465,113.446236 
	C132.432419,116.276657 132.754044,118.686066 132.926636,121.371750 
	C132.521088,122.425049 132.264587,123.202072 131.977325,124.307602 
	C131.475418,125.770203 131.004272,126.904305 130.855392,127.262657 
	C132.922470,128.797958 134.497269,129.967621 136.072067,131.137283 
	C135.060669,131.789963 134.049286,132.442627 132.454926,133.132828 
	C131.592972,133.388245 131.313980,133.606140 131.034988,133.824051 
	C130.261566,134.195068 129.488129,134.566101 128.084564,134.982605 
	C127.248856,135.041229 127.043304,135.054352 126.837761,135.067444 
	C125.782654,135.372986 124.727547,135.678528 123.331757,135.599945 
	C121.478722,133.134537 119.897552,133.338547 118.000511,135.859756 
	C117.562401,135.907471 117.124290,135.955170 116.355377,135.981171 
M128.870987,127.725281 
	C128.353256,127.330765 127.835510,126.936256 127.317780,126.541748 
	C126.122353,128.350311 124.926918,130.158890 123.731491,131.967453 
	C124.378670,132.367615 125.025848,132.767776 125.673027,133.167938 
	C126.696938,131.583344 127.720848,129.998764 128.870987,127.725281 
z"/>
<path fill="#FBF9F5" opacity="1.000000" stroke="none" 
	d="
M132.008087,123.979095 
	C132.264587,123.202072 132.521088,122.425049 133.211853,121.214897 
	C134.433426,120.589401 135.220749,120.397034 136.008072,120.204651 
	C137.039703,123.508392 139.382050,123.615303 142.480850,123.728096 
	C145.867050,123.851341 149.213654,125.400581 152.533020,126.466789 
	C152.842758,126.566277 152.832809,127.661072 152.965530,128.687408 
	C148.652420,128.405670 144.345062,127.730278 139.234680,127.044449 
	C136.290451,126.015701 134.149261,124.997398 132.008087,123.979095 
z"/>
<path fill="#903F2A" opacity="1.000000" stroke="none" 
	d="
M135.984253,174.416534 
	C133.595657,174.597549 131.217911,174.325775 128.451538,173.981659 
	C129.754135,173.426529 131.445374,172.943741 133.998657,172.214874 
	C134.260117,169.174973 135.314072,165.496994 134.668121,162.146790 
	C133.945770,158.400391 135.746750,157.996643 137.260468,157.535812 
	C136.841370,162.977066 136.418259,168.470398 135.984253,174.416534 
z"/>
<path fill="#F1C6C2" opacity="1.000000" stroke="none" 
	d="
M131.977325,124.307602 
	C134.149261,124.997398 136.290451,126.015701 138.800110,127.104454 
	C138.346298,128.416611 137.524048,129.658325 136.386932,131.018661 
	C134.497269,129.967621 132.922470,128.797958 130.855392,127.262657 
	C131.004272,126.904305 131.475418,125.770203 131.977325,124.307602 
z"/>
<path fill="#F1C6C2" opacity="1.000000" stroke="none" 
	d="
M118.414413,135.919830 
	C119.897552,133.338547 121.478722,133.134537 122.996895,135.540375 
	C121.611244,135.903259 120.219780,135.941574 118.414413,135.919830 
z"/>
<path fill="#F1C6C2" opacity="1.000000" stroke="none" 
	d="
M126.960815,135.279602 
	C127.043304,135.054352 127.248856,135.041229 127.763535,135.027557 
	C127.743065,135.181931 127.413467,135.336823 126.960815,135.279602 
z"/>
<path fill="#F1C6C2" opacity="1.000000" stroke="none" 
	d="
M131.309494,133.812210 
	C131.313980,133.606140 131.592972,133.388245 132.145416,133.145477 
	C132.140579,133.347183 131.862289,133.573776 131.309494,133.812210 
z"/>
<path fill="#F0EDF6" opacity="1.000000" stroke="none" 
	d="
M64.202858,167.846329 
	C64.942474,171.942978 65.720055,176.021545 69.387604,178.722427 
	C67.898766,180.473953 66.673401,183.282288 64.860565,183.734238 
	C61.999439,184.447556 57.407391,185.174713 57.167427,180.419510 
	C56.963184,176.372177 58.455036,172.239243 59.996658,168.069977 
	C61.932159,167.945953 63.067509,167.896149 64.202858,167.846329 
z"/>
<path fill="#BBACB4" opacity="1.000000" stroke="none" 
	d="
M97.046326,174.330368 
	C98.849770,180.200333 105.441696,177.133453 108.985825,180.705231 
	C109.013290,181.580048 109.004684,181.801849 108.717690,182.031769 
	C108.253929,182.050400 108.068550,182.060928 107.487434,182.011047 
	C105.741852,182.396133 104.392006,182.841644 102.736710,183.405197 
	C101.626389,183.682343 100.821526,183.841446 100.016655,184.000549 
	C99.019279,180.910385 98.021904,177.820221 97.046326,174.330368 
z"/>
<path fill="#E6E3EB" opacity="1.000000" stroke="none" 
	d="
M64.155571,167.476913 
	C63.067509,167.896149 61.932159,167.945953 60.372673,167.982300 
	C59.483215,166.276123 59.017895,164.583405 58.493584,162.676071 
	C60.386162,162.530518 62.379177,162.377243 64.884697,162.184555 
	C64.595413,164.018784 64.351845,165.563141 64.155571,167.476913 
z"/>
<path fill="#292637" opacity="1.000000" stroke="none" 
	d="
M99.999321,184.377563 
	C100.821526,183.841446 101.626389,183.682343 102.725052,183.420853 
	C103.018845,183.318466 102.984566,183.292801 102.915619,183.668457 
	C103.211922,184.689087 103.577179,185.334091 103.942436,185.979080 
	C103.471741,186.008057 103.001053,186.037033 102.210785,186.218170 
	C101.254814,185.831741 100.618401,185.293152 99.999321,184.377563 
z"/>
<path fill="#546649" opacity="1.000000" stroke="none" 
	d="
M136.263000,120.085342 
	C135.220749,120.397034 134.433426,120.589401 133.360886,120.938629 
	C132.754044,118.686066 132.432419,116.276657 132.062683,113.064934 
	C133.335205,109.821266 134.655853,107.379913 135.986420,105.260742 
	C136.996414,106.054192 137.996506,106.525475 138.998306,106.998245 
	C139.000000,106.999748 139.000687,107.001251 139.000687,107.001251 
	C137.874832,109.920654 136.748978,112.840057 135.219467,116.806160 
	C137.892838,116.385551 139.099274,116.195740 140.652863,116.002960 
	C141.000000,116.000000 141.002426,116.002220 141.002426,116.002220 
	C141.001770,116.413994 141.001114,116.825768 140.648911,117.613129 
	C139.574310,118.008072 138.851273,118.027412 137.824310,118.035080 
	C136.989380,118.182137 136.458374,118.340874 135.927368,118.499603 
	C136.330841,118.684708 136.734299,118.869820 137.137772,119.054924 
	C136.931168,119.358627 136.724548,119.662331 136.263000,120.085342 
z"/>
<path fill="#FBF9F5" opacity="1.000000" stroke="none" 
	d="
M138.128235,118.046761 
	C138.851273,118.027412 139.574310,118.008072 140.652908,117.921951 
	C141.934631,117.689095 142.860779,117.523018 143.906204,117.643478 
	C142.212189,118.865257 141.141022,122.481094 138.136322,119.005722 
	C138.021225,118.482872 138.128235,118.046761 138.128235,118.046761 
z"/>
<path fill="#496545" opacity="1.000000" stroke="none" 
	d="
M137.824310,118.035080 
	C138.128235,118.046761 138.021225,118.482872 137.998993,118.706299 
	C137.976746,118.929718 137.557205,118.991974 137.347488,119.023453 
	C136.734299,118.869820 136.330841,118.684708 135.927368,118.499603 
	C136.458374,118.340874 136.989380,118.182137 137.824310,118.035080 
z"/>
<path fill="#262335" opacity="1.000000" stroke="none" 
	d="
M110.624680,182.263306 
	C111.389656,182.610764 112.068466,182.998703 112.747269,183.386642 
	C112.080292,183.960815 111.413307,184.534973 110.164841,184.974945 
	C109.783203,184.018433 109.983047,183.196106 110.252052,182.343536 
	C110.321213,182.313263 110.393326,182.180603 110.393326,182.180603 
	C110.393326,182.180603 110.538513,182.303757 110.624680,182.263306 
z"/>
<path fill="#C4B7C5" opacity="1.000000" stroke="none" 
	d="
M120.792511,186.561401 
	C120.348412,186.309372 120.170448,185.864044 119.990173,184.933731 
	C119.987846,184.448746 120.015366,183.982880 120.015366,183.982880 
	C120.015366,183.982880 119.999855,184.000198 120.245544,183.913452 
	C120.714890,183.547241 120.938538,183.267776 121.162201,182.988312 
	C124.996765,184.233444 121.438622,185.252090 120.792511,186.561401 
z"/>
<path fill="#BBACB4" opacity="1.000000" stroke="none" 
	d="
M112.686165,179.050476 
	C112.525322,179.655319 112.038696,180.267883 111.223557,180.882248 
	C111.383492,180.275436 111.871941,179.666809 112.686165,179.050476 
z"/>
<path fill="#8E8291" opacity="1.000000" stroke="none" 
	d="
M121.127197,182.718735 
	C120.938538,183.267776 120.714890,183.547241 120.239304,183.923309 
	C120.163177,183.438629 120.338966,182.857346 120.776306,182.092133 
	C121.055962,182.088516 121.074074,182.268845 121.127197,182.718735 
z"/>
<path fill="#BDB7CA" opacity="1.000000" stroke="none" 
	d="
M108.996078,182.023666 
	C109.004684,181.801849 109.013290,181.580048 109.052368,181.023422 
	C109.403671,180.996094 109.724510,181.303558 110.219330,181.895813 
	C110.393326,182.180603 110.321213,182.313263 109.961624,182.233765 
	C109.400047,182.110748 109.198067,182.067215 108.996078,182.023666 
z"/>
<path fill="#426040" opacity="1.000000" stroke="none" 
	d="
M163.001831,87.004883 
	C163.065582,87.836433 163.129349,88.667984 162.756531,89.803299 
	C162.214508,91.736542 162.109055,93.366005 161.759399,95.149872 
	C161.010117,95.869720 160.505066,96.435173 160.000000,97.000610 
	C157.640533,97.002029 155.281082,97.003441 152.335022,96.701630 
	C150.847565,94.589027 149.946701,92.779640 149.360977,90.832352 
	C152.449326,89.132538 155.222519,87.570610 158.361633,86.044678 
	C160.152298,86.388748 161.577057,86.696815 163.001831,87.004883 
z"/>
<path fill="#466741" opacity="1.000000" stroke="none" 
	d="
M160.005112,97.374855 
	C160.505066,96.435173 161.010117,95.869720 162.144882,95.152214 
	C164.850845,95.665138 166.927094,96.330124 169.003357,96.995117 
	C169.558273,97.166328 170.113190,97.337532 170.835281,97.754211 
	C170.819534,99.447937 170.636597,100.896187 170.453705,102.344437 
	C162.379639,104.122787 162.228180,104.896599 160.005112,97.374855 
z"/>
<path fill="#486544" opacity="1.000000" stroke="none" 
	d="
M151.958694,102.002785 
	C151.736923,102.721291 151.259933,103.473038 151.348251,104.151161 
	C151.515320,105.433884 152.007111,106.674309 152.363968,107.932312 
	C150.741379,107.932312 149.118805,107.932312 147.290512,107.932312 
	C147.780487,104.533646 149.398056,100.602249 143.371643,102.708061 
	C142.999054,102.331459 142.998657,102.164391 143.005676,101.636368 
	C144.298416,100.489754 145.583771,99.704102 147.746033,98.382469 
	C147.742401,98.416161 147.873810,97.198662 148.306961,96.129860 
	C149.741882,97.856133 150.875061,99.433708 152.008240,101.011276 
	C152.008240,101.011276 151.999817,101.000374 151.990662,101.248077 
	C151.973907,101.664795 151.966309,101.833794 151.958694,102.002785 
z"/>
<path fill="#335030" opacity="1.000000" stroke="none" 
	d="
M152.010956,100.610962 
	C150.875061,99.433708 149.741882,97.856133 148.276932,95.786240 
	C147.631317,94.195389 147.317490,93.096863 147.003662,91.599480 
	C146.999557,90.137543 146.995453,89.074448 147.253448,88.167503 
	C148.025665,89.205849 148.535751,90.088051 149.045837,90.970245 
	C149.946701,92.779640 150.847565,94.589027 151.893372,96.705254 
	C152.030075,98.078278 152.021866,99.144455 152.010956,100.610962 
z"/>
<path fill="#546649" opacity="1.000000" stroke="none" 
	d="
M142.998276,101.997330 
	C142.998657,102.164391 142.999054,102.331459 143.000641,102.749107 
	C142.771286,104.428162 142.714584,105.925995 142.191269,107.237671 
	C142.055801,107.577232 140.458313,107.333519 139.266541,107.179489 
	C139.000687,107.001251 139.000000,106.999748 139.003983,106.644867 
	C139.669189,105.525414 140.330414,104.760849 141.238281,103.845505 
	C141.989365,103.128929 142.493820,102.563133 142.998276,101.997330 
z"/>
<path fill="#486544" opacity="1.000000" stroke="none" 
	d="
M150.978760,115.024078 
	C150.036362,115.332016 149.301010,115.380188 148.565674,115.428360 
	C148.928635,114.427956 149.031937,112.878319 149.715164,112.555275 
	C150.751785,112.065147 152.191315,112.427132 154.532639,112.427132 
	C152.845596,113.605240 152.015717,114.184784 150.978760,115.024078 
z"/>
<path fill="#546649" opacity="1.000000" stroke="none" 
	d="
M140.998917,115.998886 
	C141.153412,115.550346 141.308990,115.102905 141.464569,114.655464 
	C141.743134,114.787170 142.021713,114.918884 142.300278,115.050598 
	C142.037003,115.355362 141.773727,115.660118 141.256439,115.983551 
	C141.002426,116.002220 141.000000,116.000000 140.998917,115.998886 
z"/>
<path fill="#335030" opacity="1.000000" stroke="none" 
	d="
M152.100876,102.161560 
	C151.966309,101.833794 151.973907,101.664795 151.987457,101.241989 
	C152.076599,101.432228 152.159821,101.876282 152.100876,102.161560 
z"/>
<path fill="#6C5F51" opacity="1.000000" stroke="none" 
	d="
M164.973801,54.961147 
	C165.702866,54.629845 166.431946,54.298542 167.481354,53.965515 
	C168.176468,58.682209 168.551254,63.400623 168.676544,68.713211 
	C168.214050,69.547935 168.096954,69.828529 168.075745,70.149162 
	C168.075745,70.149162 168.061661,70.049095 167.809494,70.147476 
	C167.652115,71.161949 167.746902,72.078049 167.841690,72.994141 
	C167.891281,73.444847 167.940872,73.895554 167.610199,74.669113 
	C166.815475,74.984627 166.401016,74.977280 165.733948,74.695358 
	C163.011307,74.975822 160.206940,71.487480 157.743866,74.870224 
	C156.936813,74.158684 156.370712,73.617538 155.809692,72.744461 
	C154.877243,71.277954 153.939713,70.143379 153.003174,68.645859 
	C153.842636,61.490135 154.987732,60.145794 160.198593,60.080803 
	C161.282288,60.067284 162.370407,60.407532 163.629837,60.613033 
	C164.119568,58.553555 164.546692,56.757355 164.973801,54.961147 
z"/>
<path fill="#485140" opacity="1.000000" stroke="none" 
	d="
M165.986542,74.969933 
	C166.401016,74.977280 166.815475,74.984627 167.540619,75.004021 
	C168.232574,78.392784 168.613861,81.769493 168.929993,85.570992 
	C167.673248,84.553391 166.481659,83.111008 165.269653,81.040077 
	C165.501297,79.610710 165.753342,78.809891 166.241867,77.841362 
	C166.314423,76.772415 166.150482,75.871170 165.986542,74.969933 
z"/>
<path fill="#5D5C4B" opacity="1.000000" stroke="none" 
	d="
M167.916000,72.631851 
	C167.746902,72.078049 167.652115,71.161949 167.859756,70.152649 
	C168.104904,70.796150 168.047607,71.532852 167.916000,72.631851 
z"/>
<path fill="#5D5C4B" opacity="1.000000" stroke="none" 
	d="
M168.311371,70.042343 
	C168.096954,69.828529 168.214050,69.547935 168.614990,69.172997 
	C168.717606,69.337578 168.632294,69.636551 168.311371,70.042343 
z"/>
<path fill="#555744" opacity="1.000000" stroke="none" 
	d="
M166.005386,78.009064 
	C165.753342,78.809891 165.501297,79.610710 165.124313,80.705612 
	C163.050644,81.415863 161.101913,81.832031 158.947586,82.918373 
	C158.493240,84.395264 158.244476,85.201973 157.995728,86.008682 
	C155.222519,87.570610 152.449326,89.132538 149.360977,90.832352 
	C148.535751,90.088051 148.025665,89.205849 146.877716,88.118973 
	C143.158768,88.273811 140.077682,88.633331 137.005539,88.618042 
	C138.633255,83.852341 142.412003,84.040245 146.356873,84.119987 
	C149.109390,87.641212 151.714783,86.808884 153.709351,84.037186 
	C155.469193,81.591652 156.589706,78.686035 158.147827,76.291122 
	C160.870544,77.068802 163.437973,77.538933 166.005386,78.009064 
z"/>
<path fill="#3D5A3B" opacity="1.000000" stroke="none" 
	d="
M168.994202,96.633469 
	C166.927094,96.330124 164.850845,95.665138 162.389099,94.997818 
	C162.109055,93.366005 162.214508,91.736542 162.661026,90.053848 
	C164.996414,92.091026 166.990738,94.181427 168.994202,96.633469 
z"/>
<path fill="#3F573B" opacity="1.000000" stroke="none" 
	d="
M158.361633,86.044678 
	C158.244476,85.201973 158.493240,84.395264 158.870697,83.293976 
	C161.089874,83.427414 164.914612,81.607361 163.276947,86.758186 
	C161.577057,86.696815 160.152298,86.388748 158.361633,86.044678 
z"/>
<path fill="#8F8999" opacity="1.000000" stroke="none" 
	d="
M108.717690,182.031769 
	C109.198067,182.067215 109.400047,182.110748 109.892464,182.264038 
	C109.983047,183.196106 109.783203,184.018433 109.827621,185.024323 
	C110.071884,185.207916 110.047272,185.662506 109.983063,185.881012 
	C108.623840,186.060989 107.328827,186.022461 105.652069,186.053024 
	C105.049606,186.092987 104.828880,186.063843 104.275299,186.006897 
	C103.577179,185.334091 103.211922,184.689087 103.224144,183.881943 
	C105.028801,183.170349 106.455994,182.620911 107.883179,182.071457 
	C108.068550,182.060928 108.253929,182.050400 108.717690,182.031769 
z"/>
<path fill="#8E8291" opacity="1.000000" stroke="none" 
	d="
M119.805405,184.027100 
	C120.015366,183.982880 119.987846,184.448746 119.977615,184.681183 
	C119.761230,184.747849 119.547348,184.589783 119.362030,184.403305 
	C119.345352,184.386536 119.513252,184.186340 119.805405,184.027100 
z"/>
<path fill="#F0C8C2" opacity="1.000000" stroke="none" 
	d="
M85.140518,60.076523 
	C86.047081,57.955925 86.953644,55.835327 88.286903,53.219940 
	C90.818382,51.516048 92.923164,50.306953 95.027946,49.097855 
	C99.569214,48.413052 104.129715,47.835007 108.647781,47.021389 
	C118.266533,45.289246 124.809578,49.608910 129.857651,58.054893 
	C130.342514,59.770332 130.623901,60.861900 130.594696,61.782398 
	C123.448967,57.256336 113.812050,59.375076 110.775887,66.565125 
	C112.881866,66.150917 114.792755,65.306213 116.659363,64.372932 
	C124.687447,60.359020 130.988083,63.025318 132.033997,71.201828 
	C131.919342,71.645897 131.891052,71.827759 131.601868,72.300278 
	C130.888809,75.382843 130.436646,78.174774 129.922745,80.609467 
	C129.529800,79.324745 129.330124,78.321053 128.844574,77.482994 
	C126.751350,73.870110 123.663857,71.078857 119.464020,71.519844 
	C117.655602,71.709724 115.345085,74.323936 114.646317,76.320923 
	C113.338844,80.057480 113.059799,84.142647 116.881752,87.234550 
	C116.599503,87.741371 116.342438,87.932312 115.656723,88.081238 
	C114.199303,92.084717 113.103401,96.039864 111.716324,100.137680 
	C110.282242,101.520386 109.139328,102.760422 107.701355,103.869965 
	C106.602982,103.460106 105.799675,103.180756 104.968010,102.601746 
	C104.595444,101.843330 104.251244,101.384567 103.985344,100.594589 
	C107.896957,97.319588 108.680206,92.663742 105.079765,90.978775 
	C101.302887,89.211243 100.312538,86.160217 98.724030,82.829109 
	C98.109634,81.515755 97.874069,80.286194 97.308105,79.234406 
	C96.465385,77.668274 95.389381,76.227661 94.412643,74.733643 
	C92.927605,75.860481 91.228844,76.797890 90.016098,78.166084 
	C88.738869,79.607018 87.926064,81.459625 86.582474,83.083588 
	C85.503952,82.354507 84.753296,81.674194 84.018959,80.743095 
	C83.988632,80.331406 83.941986,80.170486 83.895340,80.009567 
	C83.630852,78.567635 83.366371,77.125710 83.062859,74.967209 
	C85.914230,71.606834 88.804619,68.963043 92.029358,66.013428 
	C91.249527,65.858498 89.786102,65.368446 88.311409,65.331825 
	C86.886604,65.296432 85.450203,65.728355 84.134529,65.592560 
	C84.546951,63.512253 84.843735,61.794388 85.140518,60.076523 
z"/>
<path fill="#773D2F" opacity="1.000000" stroke="none" 
	d="
M160.850159,36.692207 
	C161.255798,39.627590 161.444138,42.247581 161.814682,44.841545 
	C162.163513,47.283497 162.092728,49.257553 158.294647,48.769192 
	C157.590469,48.273949 157.334534,48.087875 157.014313,47.990192 
	C157.014313,47.990192 157.001831,47.994785 157.005905,47.597649 
	C157.206161,44.338249 156.059937,42.757584 152.669952,43.030384 
	C151.223724,43.701069 150.109406,44.343567 148.596069,44.986748 
	C147.133423,44.984360 146.069763,44.981285 144.864487,44.662140 
	C144.487930,43.239357 144.253006,42.132641 144.018082,41.025921 
	C144.018082,41.025921 144.511703,41.017391 145.101898,40.976883 
	C147.129974,40.286087 148.567856,39.635796 150.382462,38.987984 
	C151.709045,38.610001 152.658905,38.229542 153.608765,37.849083 
	C152.850891,36.313999 152.407944,34.458923 151.255508,33.324741 
	C149.811356,31.903444 147.784943,31.073765 146.009842,29.988731 
	C146.446686,29.382240 147.212662,28.213743 147.273468,28.249353 
	C151.788818,30.893749 156.248398,33.633385 160.850159,36.692207 
z"/>
<path fill="#713F30" opacity="1.000000" stroke="none" 
	d="
M132.041550,47.979805 
	C131.758453,47.251835 131.475357,46.523869 131.081177,45.510254 
	C133.717392,45.701664 135.935715,45.862732 138.730453,46.065655 
	C138.175888,44.255112 137.789230,42.992790 137.175171,40.988075 
	C138.621185,41.757736 139.520584,42.236450 140.868774,43.176624 
	C141.872589,45.421143 142.427582,47.204201 142.698242,49.198963 
	C140.254425,51.072342 138.069214,52.720718 138.763123,55.992077 
	C138.340515,55.998798 138.171448,56.000744 137.806885,55.724651 
	C135.754776,52.957676 133.898163,50.468739 132.041550,47.979805 
z"/>
<path fill="#643B2A" opacity="1.000000" stroke="none" 
	d="
M132.029053,48.421677 
	C133.898163,50.468739 135.754776,52.957676 137.540253,55.914749 
	C136.979706,57.588356 136.490280,58.793823 136.000427,59.999649 
	C136.000000,60.000000 135.999390,60.000874 135.751892,59.995911 
	C135.504395,59.990944 135.009308,59.988071 134.952301,59.847145 
	C134.804611,59.658215 134.713898,59.610207 134.623199,59.562195 
	C134.744690,59.711376 134.866196,59.860558 134.983902,60.344261 
	C134.650986,61.439659 134.321869,62.200531 133.776062,62.700760 
	C132.674683,62.277897 131.789978,62.115685 130.905273,61.953472 
	C130.623901,60.861900 130.342514,59.770332 130.042267,58.338005 
	C130.687805,54.952675 131.352188,51.908108 132.029053,48.421677 
z"/>
<path fill="#5F3123" opacity="1.000000" stroke="none" 
	d="
M93.936562,40.642704 
	C86.857445,42.122208 81.506485,39.352039 79.632629,33.402340 
	C80.848450,32.960331 82.075577,32.514217 83.651047,32.032459 
	C83.541489,35.714798 85.916954,37.029247 88.905350,38.008278 
	C90.625900,38.571957 92.223663,39.510468 93.936562,40.642704 
z"/>
<path fill="#602E20" opacity="1.000000" stroke="none" 
	d="
M145.728760,30.238491 
	C147.784943,31.073765 149.811356,31.903444 151.255508,33.324741 
	C152.407944,34.458923 152.850891,36.313999 153.608765,37.849083 
	C152.658905,38.229542 151.709045,38.610001 150.236420,38.690918 
	C148.144287,37.263279 146.574905,36.135185 145.005524,35.007092 
	C145.152924,33.500813 145.300308,31.994530 145.728760,30.238491 
z"/>
<path fill="#562A1C" opacity="1.000000" stroke="none" 
	d="
M95.018448,48.721703 
	C92.923164,50.306953 90.818382,51.516048 88.417267,52.891441 
	C87.748390,52.270229 87.375854,51.482719 86.999634,50.343071 
	C89.082298,48.350586 91.168640,46.710239 93.616943,45.022659 
	C94.322250,46.098804 94.665596,47.222179 95.018448,48.721703 
z"/>
<path fill="#69372A" opacity="1.000000" stroke="none" 
	d="
M145.002762,35.434937 
	C146.574905,36.135185 148.144287,37.263279 149.859711,38.688438 
	C148.567856,39.635796 147.129974,40.286087 145.348648,40.969795 
	C145.003464,39.289734 145.001740,37.576260 145.002762,35.434937 
z"/>
<path fill="#69372A" opacity="1.000000" stroke="none" 
	d="
M142.982574,48.987259 
	C142.427582,47.204201 141.872589,45.421143 141.158585,43.317703 
	C141.795441,42.357407 142.591309,41.717491 143.702621,41.051746 
	C144.253006,42.132641 144.487930,43.239357 144.861053,45.041206 
	C144.327011,46.819977 143.654785,47.903614 142.982574,48.987259 
z"/>
<path fill="#5F3123" opacity="1.000000" stroke="none" 
	d="
M85.467285,31.449392 
	C85.523834,31.415472 85.410736,31.483313 85.467285,31.449392 
z"/>
<path fill="#5F3123" opacity="1.000000" stroke="none" 
	d="
M93.005745,42.745010 
	C92.893867,42.719055 92.781357,42.451141 92.838257,42.101177 
	C93.007683,42.019127 93.005112,42.503048 93.005745,42.745010 
z"/>
<path fill="#4D4C41" opacity="1.000000" stroke="none" 
	d="
M84.002640,80.993874 
	C84.753296,81.674194 85.503952,82.354507 86.615875,83.297943 
	C86.977135,83.561066 87.018875,83.992752 86.728500,84.237915 
	C86.709023,87.017235 86.979919,89.551376 87.225487,92.495049 
	C87.186150,94.273117 87.172142,95.641663 86.882271,96.995300 
	C86.422668,96.993164 86.238937,97.005936 85.789124,97.014313 
	C85.345711,97.005280 85.168365,97.000656 84.991013,96.996033 
	C84.806190,90.024467 81.160583,87.020538 72.428879,86.996979 
	C74.175117,86.353149 76.334229,85.648582 78.531219,85.094086 
	C79.610901,84.821587 80.760742,84.827110 82.193481,84.189293 
	C83.006294,82.779137 83.504463,81.886505 84.002640,80.993874 
z"/>
<path fill="#39523A" opacity="1.000000" stroke="none" 
	d="
M84.576225,96.997574 
	C85.168365,97.000656 85.345711,97.005280 85.769653,97.407799 
	C86.087585,98.852058 86.158913,99.898422 86.230240,100.944786 
	C83.986961,101.506821 83.345024,106.982353 79.325226,103.041931 
	C78.610046,99.179031 79.336967,96.325493 84.576225,96.997574 
z"/>
<path fill="#4D4C41" opacity="1.000000" stroke="none" 
	d="
M70.122192,87.223991 
	C70.338203,87.107513 70.593246,87.294670 70.893127,87.780975 
	C70.673119,87.906891 70.414200,87.722725 70.122192,87.223991 
z"/>
<path fill="#694D3C" opacity="1.000000" stroke="none" 
	d="
M84.863838,59.960670 
	C84.843735,61.794388 84.546951,63.512253 84.029518,65.820724 
	C83.543091,66.606956 83.277313,66.802574 83.011536,66.998199 
	C80.378204,66.330620 77.594131,65.995163 75.159370,64.890083 
	C73.221138,64.010368 71.709457,62.190868 69.997559,60.400375 
	C74.198257,59.902382 78.409813,59.792591 82.810760,59.344788 
	C83.529160,59.286121 84.058151,59.565472 84.863838,59.960670 
z"/>
<path fill="#5C594C" opacity="1.000000" stroke="none" 
	d="
M84.018959,80.743095 
	C83.504463,81.886505 83.006294,82.779137 82.255127,83.844749 
	C79.878525,83.010101 77.702370,82.097031 75.651970,80.957642 
	C74.511932,80.324127 73.581558,79.313301 72.287750,77.980621 
	C72.028290,77.320404 72.037766,77.152077 72.047249,76.983742 
	C76.766800,74.211273 79.979836,77.014008 83.521606,79.996437 
	C83.941986,80.170486 83.988632,80.331406 84.018959,80.743095 
z"/>
<path fill="#5F3F37" opacity="1.000000" stroke="none" 
	d="
M83.002518,67.376686 
	C83.277313,66.802574 83.543091,66.606956 83.913879,66.183167 
	C85.450203,65.728355 86.886604,65.296432 88.311409,65.331825 
	C89.786102,65.368446 91.249527,65.858498 92.029358,66.013428 
	C88.804619,68.963043 85.914230,71.606834 82.967857,74.608719 
	C82.409454,74.067413 81.422241,73.117355 81.509789,72.279610 
	C81.671028,70.736633 82.463875,69.259651 83.002518,67.376686 
z"/>
<path fill="#4D4C41" opacity="1.000000" stroke="none" 
	d="
M72.013702,76.688583 
	C72.037766,77.152077 72.028290,77.320404 72.011955,77.741447 
	C71.020058,79.125092 70.971504,82.463684 68.140785,79.294113 
	C68.977196,77.909416 69.953735,76.804565 70.966248,75.355392 
	C71.328201,75.471855 71.654182,75.932640 72.013702,76.688583 
z"/>
<path fill="#70302E" opacity="1.000000" stroke="none" 
	d="
M32.631836,7.964156 
	C34.826145,8.343794 36.661430,8.781595 38.499722,9.220114 
	C38.683762,11.392289 38.844719,13.291998 38.991524,15.571411 
	C33.727131,10.106442 27.156103,10.232815 23.011528,16.613939 
	C20.833271,14.686750 18.718348,12.402571 17.098913,9.966978 
	C18.066505,9.541869 18.538605,9.268174 19.010706,8.994480 
	C20.066212,8.999907 21.121719,9.005335 22.991634,9.009268 
	C25.903111,8.733649 28.000175,8.459525 30.097240,8.185402 
	C30.822432,8.131042 31.547621,8.076681 32.631836,7.964156 
z"/>
<path fill="#713125" opacity="1.000000" stroke="none" 
	d="
M39.776886,21.049059 
	C41.035507,23.618834 42.064178,26.419058 43.183540,29.615372 
	C42.340012,31.474766 41.405792,32.938072 40.218491,34.648598 
	C39.261318,34.952091 38.557228,35.008358 37.187035,35.068344 
	C36.368328,35.725201 36.215717,36.378326 36.063107,37.031456 
	C36.063107,37.031456 36.060158,37.488998 36.034531,38.045982 
	C36.273945,39.375778 36.538986,40.148590 36.804031,40.921398 
	C36.738945,42.229752 36.673862,43.538105 36.608776,44.846458 
	C36.217300,44.924191 35.825825,45.001919 35.434349,45.079651 
	C34.214733,43.162865 32.995117,41.246078 31.498161,39.130344 
	C33.132397,36.730019 35.263569,34.676662 36.881023,32.277035 
	C38.025547,30.579039 38.672554,28.461353 39.172695,26.439737 
	C39.580887,24.789783 39.442814,23.004686 39.776886,21.049059 
z"/>
<path fill="#572D21" opacity="1.000000" stroke="none" 
	d="
M74.015335,37.988274 
	C74.146057,38.129730 74.262650,38.282898 74.379250,38.436066 
	C74.286827,38.391243 74.194405,38.346420 74.039948,38.164921 
	C73.977921,38.028244 74.001213,37.999985 74.015335,37.988274 
z"/>
<path fill="#6A5647" opacity="1.000000" stroke="none" 
	d="
M164.732086,54.800713 
	C164.546692,56.757355 164.119568,58.553555 163.629837,60.613033 
	C162.370407,60.407532 161.282288,60.067284 160.198593,60.080803 
	C154.987732,60.145794 153.842636,61.490135 152.663651,68.543129 
	C150.235016,69.260246 148.146896,69.717155 146.038544,69.749786 
	C146.213440,66.332771 144.958969,64.793571 141.814484,64.988037 
	C140.218948,65.086716 138.612396,65.007004 137.064972,64.653214 
	C138.462692,63.475185 139.721237,62.438038 141.164032,61.864388 
	C148.760941,58.843899 156.404343,55.940422 164.031616,52.996330 
	C164.184540,53.544312 164.337463,54.092297 164.732086,54.800713 
z"/>
<path fill="#654D3E" opacity="1.000000" stroke="none" 
	d="
M164.185059,52.811153 
	C156.404343,55.940422 148.760941,58.843899 141.164032,61.864388 
	C139.721237,62.438038 138.462692,63.475185 136.935822,64.948242 
	C136.597534,66.911194 136.442581,68.224396 136.256165,69.804222 
	C135.100525,68.812950 134.069717,67.928772 133.126556,66.777115 
	C133.473267,66.011612 133.732376,65.513596 134.161743,64.925125 
	C134.397308,64.725449 134.542969,64.554543 134.514420,64.517349 
	C134.366669,64.324890 134.174393,64.166611 133.995712,63.737671 
	C133.993439,63.306412 133.993103,63.133907 133.992752,62.961403 
	C134.321869,62.200531 134.650986,61.439659 134.989990,60.339424 
	C134.999847,60.000065 135.009308,59.988071 135.009308,59.988071 
	C135.009308,59.988071 135.504395,59.990944 135.806396,60.136532 
	C136.195663,60.331970 136.282913,60.381817 136.370163,60.431664 
	C136.247070,60.287540 136.123962,60.143417 136.000870,59.999294 
	C136.490280,58.793823 136.979706,57.588356 137.735748,56.192787 
	C138.171448,56.000744 138.340515,55.998798 139.069382,56.127892 
	C141.083313,55.833591 142.537430,55.408249 143.991547,54.982906 
	C150.101013,53.418915 156.210464,51.854919 162.659973,50.145462 
	C163.000015,50.000000 163.010422,50.008266 163.010422,50.008266 
	C163.453125,50.880836 163.895813,51.753407 164.185059,52.811153 
z"/>
<path fill="#5F3A2B" opacity="1.000000" stroke="none" 
	d="
M144.005005,54.596153 
	C142.537430,55.408249 141.083313,55.833591 139.322937,56.123116 
	C138.069214,52.720718 140.254425,51.072342 142.698242,49.198959 
	C143.654785,47.903614 144.327011,46.819977 145.002670,45.357273 
	C146.069763,44.981285 147.133423,44.984360 148.801971,45.249695 
	C150.605194,44.675369 151.803513,43.838783 153.001831,43.002197 
	C156.059937,42.757584 157.206161,44.338249 157.012894,47.590485 
	C152.683350,50.056767 148.350906,52.133083 144.005005,54.596153 
z"/>
<path fill="#654D3E" opacity="1.000000" stroke="none" 
	d="
M162.995941,49.994839 
	C163.091110,49.958740 163.190338,49.927799 163.149994,49.952560 
	C163.010422,50.008266 163.000015,50.000000 162.995941,49.994839 
z"/>
<path fill="#5F3A2B" opacity="1.000000" stroke="none" 
	d="
M157.114990,48.209770 
	C157.334534,48.087875 157.590469,48.273949 157.885223,48.765755 
	C157.666290,48.888462 157.408737,48.703880 157.114990,48.209770 
z"/>
<path fill="#693130" opacity="1.000000" stroke="none" 
	d="
M39.768417,62.089458 
	C39.129471,56.475693 43.742672,58.564758 46.316631,57.552429 
	C46.352882,61.786198 43.473606,62.433727 39.768417,62.089458 
z"/>
<path fill="#260907" opacity="1.000000" stroke="none" 
	d="
M29.846272,7.872535 
	C28.000175,8.459525 25.903111,8.733649 23.386124,8.975528 
	C25.175901,8.482078 27.385603,8.020873 29.846272,7.872535 
z"/>
<path fill="#260907" opacity="1.000000" stroke="none" 
	d="
M18.853317,8.775007 
	C18.538605,9.268174 18.066505,9.541869 17.311241,9.748036 
	C17.584026,9.305517 18.139977,8.930526 18.853317,8.775007 
z"/>
<path fill="#3D463A" opacity="1.000000" stroke="none" 
	d="
M65.889236,84.119598 
	C65.923409,84.330818 65.735344,84.610909 65.288910,84.866211 
	C65.157143,84.540382 65.369293,84.322739 65.889236,84.119598 
z"/>
<path fill="#6F2E25" opacity="1.000000" stroke="none" 
	d="
M36.296787,36.857033 
	C36.215717,36.378326 36.368328,35.725201 36.833603,35.067921 
	C36.941002,35.603382 36.735733,36.142994 36.296787,36.857033 
z"/>
<path fill="#6F2E25" opacity="1.000000" stroke="none" 
	d="
M36.850365,40.597931 
	C36.538986,40.148590 36.273945,39.375778 36.018055,38.274170 
	C36.317039,38.721729 36.606865,39.498096 36.850365,40.597931 
z"/>
<path fill="#F0CAC3" opacity="1.000000" stroke="none" 
	d="
M107.991295,110.976517 
	C109.123787,111.224884 110.256287,111.473244 111.951591,111.845024 
	C111.809258,112.943375 111.637444,114.269196 110.868805,115.877853 
	C106.590538,115.329285 102.909111,114.497864 99.167603,113.700806 
	C99.107529,113.735153 99.245613,113.744690 99.125847,113.509689 
	C98.675293,113.204582 98.344498,113.134476 97.675644,112.954002 
	C96.249542,112.507256 95.161514,112.170876 94.073494,111.834488 
	C94.073494,111.834488 94.068474,111.411064 94.452484,111.161636 
	C96.354424,110.997986 97.937103,111.380394 99.368126,111.068008 
	C100.365967,110.850197 101.155930,109.680061 102.405670,108.958664 
	C104.512154,109.646851 106.251724,110.311684 107.991295,110.976517 
z"/>
<path fill="#F6C7C1" opacity="1.000000" stroke="none" 
	d="
M102.038750,108.935318 
	C101.155930,109.680061 100.365967,110.850197 99.368126,111.068008 
	C97.937103,111.380394 96.354424,110.997986 94.494781,110.954178 
	C94.153076,110.996155 93.938797,110.646606 93.954597,110.129578 
	C93.981354,109.403412 93.992302,109.194275 94.257889,108.759315 
	C95.343239,106.688087 96.173935,104.842674 97.388626,102.995010 
	C99.817421,102.303764 101.862228,101.614784 103.907036,100.925812 
	C104.251244,101.384567 104.595444,101.843330 104.599556,102.687836 
	C103.519218,105.027489 102.778984,106.981407 102.038750,108.935318 
z"/>
<path fill="#4D6449" opacity="1.000000" stroke="none" 
	d="
M94.048164,112.124573 
	C95.161514,112.170876 96.249542,112.507256 97.815605,113.166458 
	C98.610962,113.574417 98.928291,113.659554 99.245613,113.744690 
	C99.245613,113.744690 99.107529,113.735153 99.215508,114.064339 
	C101.552422,116.225487 103.781357,118.057449 105.553146,119.940994 
	C101.831863,119.992577 98.567734,119.992577 95.668076,119.992577 
	C95.010376,118.428970 94.540581,117.312088 94.070793,116.195206 
	C94.047394,115.395638 94.024002,114.596077 93.997223,113.396408 
	C94.003510,112.802414 94.013176,112.608536 94.048164,112.124573 
z"/>
<path fill="#B89C92" opacity="1.000000" stroke="none" 
	d="
M86.504105,101.166534 
	C86.158913,99.898422 86.087585,98.852058 86.035736,97.412201 
	C86.238937,97.005936 86.422668,96.993164 87.090973,96.947922 
	C87.575539,96.915451 88.004440,96.933037 88.002769,97.347244 
	C88.992691,100.507301 89.984283,103.253166 91.277069,106.143089 
	C92.117889,107.220276 92.657509,108.153397 93.091240,109.101494 
	C92.985352,109.116470 92.798073,109.013145 92.798073,109.013145 
	C92.169403,108.950829 91.540726,108.888512 90.598572,108.847145 
	C89.116051,106.374825 87.947006,103.881561 86.504105,101.166534 
z"/>
<path fill="#F0CAC3" opacity="1.000000" stroke="none" 
	d="
M94.003242,108.985130 
	C93.992302,109.194275 93.981354,109.403412 93.937729,109.925278 
	C93.582008,110.021553 93.258949,109.805099 92.866982,109.300896 
	C92.798073,109.013145 92.985352,109.116470 93.290909,109.066612 
	C93.596466,109.016754 94.003242,108.985130 94.003242,108.985130 
z"/>
<path fill="#FAFAF3" opacity="1.000000" stroke="none" 
	d="
M93.923935,116.492188 
	C94.540581,117.312088 95.010376,118.428970 95.668076,119.992577 
	C98.567734,119.992577 101.831863,119.992577 105.910614,120.020660 
	C108.034645,120.501396 111.519768,118.954262 108.982094,123.080475 
	C105.251564,123.915840 101.739670,124.412727 98.227776,124.909615 
	C95.512283,121.014984 92.089455,123.763779 88.542549,123.903564 
	C90.020721,121.520477 91.898895,119.154823 93.923935,116.492188 
z"/>
<path fill="#E8BCB3" opacity="1.000000" stroke="none" 
	d="
M98.215073,125.257607 
	C101.739670,124.412727 105.251564,123.915840 109.255508,123.089645 
	C110.109955,122.737175 110.472351,122.713997 110.834747,122.690811 
	C111.190025,126.421028 111.545303,130.151245 112.016830,134.249237 
	C106.461922,133.201767 101.619675,130.505081 98.215073,125.257607 
z"/>
<path fill="#E8BCB3" opacity="1.000000" stroke="none" 
	d="
M112.248672,135.095093 
	C112.282333,134.890182 112.631142,134.933777 112.804535,134.961975 
	C112.723625,135.093445 112.469315,135.196732 112.248672,135.095093 
z"/>
<path fill="#EEBEB6" opacity="1.000000" stroke="none" 
	d="
M112.007492,99.995010 
	C113.103401,96.039864 114.199303,92.084717 115.670074,88.395988 
	C116.388611,89.424522 116.732269,90.186646 117.050613,91.389313 
	C116.985497,95.584084 116.503822,99.039940 120.768204,101.687126 
	C125.249763,104.469116 128.911697,107.320091 133.557465,102.360130 
	C134.265045,101.604668 135.657883,101.491020 136.844208,101.408585 
	C136.628601,102.803955 136.302551,103.871262 135.976517,104.938560 
	C134.655853,107.379913 133.335205,109.821266 131.966339,112.643921 
	C129.206024,114.007103 126.493919,114.988983 123.781807,115.970863 
	C123.464020,115.458725 123.146233,114.946587 122.828453,114.434448 
	C124.541634,113.269547 126.254814,112.104645 129.145157,110.139328 
	C126.599785,109.558403 124.823013,109.152901 123.046249,108.747398 
	C123.055046,108.919785 123.063843,109.092171 123.072647,109.264565 
	C120.634644,107.844261 118.196632,106.423958 115.351212,104.666801 
	C113.965019,102.884972 112.986252,101.439995 112.007492,99.995010 
z"/>
<path fill="#E4B2AD" opacity="1.000000" stroke="none" 
	d="
M102.405670,108.958664 
	C102.778984,106.981407 103.519218,105.027489 104.627914,102.987488 
	C105.799675,103.180756 106.602982,103.460106 107.557053,104.112732 
	C106.793785,106.351082 107.212395,106.677055 110.966743,107.023720 
	C110.006676,108.129822 109.046616,109.235924 108.038925,110.659271 
	C106.251724,110.311684 104.512154,109.646851 102.405670,108.958664 
z"/>
<path fill="#5E5F4F" opacity="1.000000" stroke="none" 
	d="
M110.905106,122.281860 
	C110.472351,122.713997 110.109955,122.737175 109.474152,122.751175 
	C111.519768,118.954262 108.034645,120.501396 106.367760,119.969070 
	C103.781357,118.057449 101.552422,116.225487 99.275589,114.029984 
	C102.909111,114.497864 106.590538,115.329285 110.586273,116.104065 
	C110.925545,117.989265 110.950500,119.931091 110.905106,122.281860 
z"/>
<path fill="#F6C7C1" opacity="1.000000" stroke="none" 
	d="
M111.247551,106.827408 
	C107.212395,106.677055 106.793785,106.351082 107.852112,104.243240 
	C109.139328,102.760422 110.282242,101.520386 111.716324,100.137680 
	C112.986252,101.439995 113.965019,102.884972 114.979355,104.661140 
	C113.852737,105.538589 112.690544,106.084846 111.247551,106.827408 
z"/>
<path fill="#F1C6C2" opacity="1.000000" stroke="none" 
	d="
M128.807877,128.069733 
	C127.720848,129.998764 126.696938,131.583344 125.673027,133.167938 
	C125.025848,132.767776 124.378670,132.367615 123.731491,131.967453 
	C124.926918,130.158890 126.122353,128.350311 127.317780,126.541748 
	C127.835510,126.936256 128.353256,127.330765 128.807877,128.069733 
z"/>
<path fill="#2D2634" opacity="1.000000" stroke="none" 
	d="
M107.487434,182.011047 
	C106.455994,182.620911 105.028801,183.170349 103.293091,183.506287 
	C102.984566,183.292801 103.018845,183.318466 103.030502,183.302811 
	C104.392006,182.841644 105.741852,182.396133 107.487434,182.011047 
z"/>
<path fill="#585B40" opacity="1.000000" stroke="none" 
	d="
M135.986420,105.260742 
	C136.302551,103.871262 136.628601,102.803955 136.860184,101.065414 
	C135.894592,99.099495 135.023468,97.804810 134.202713,96.382629 
	C134.253098,96.255127 134.137390,96.006554 134.146301,95.712311 
	C134.418701,94.941505 134.682190,94.464943 135.286530,93.986633 
	C136.081665,93.987312 136.535980,93.989723 137.001495,94.365479 
	C138.339005,97.824638 139.665329,100.910461 140.991653,103.996284 
	C140.330414,104.760849 139.669189,105.525414 139.002289,106.643372 
	C137.996506,106.525475 136.996414,106.054192 135.986420,105.260742 
z"/>
<path fill="#436141" opacity="1.000000" stroke="none" 
	d="
M141.238281,103.845505 
	C139.665329,100.910461 138.339005,97.824638 137.019562,93.960922 
	C139.869705,88.724884 143.560501,91.404373 147.003662,91.998329 
	C147.317490,93.096863 147.631317,94.195389 147.975174,95.637543 
	C147.873810,97.198662 147.742401,98.416161 147.746033,98.382469 
	C145.583771,99.704102 144.298416,100.489754 143.005676,101.636368 
	C142.493820,102.563133 141.989365,103.128929 141.238281,103.845505 
z"/>
<path fill="#47583F" opacity="1.000000" stroke="none" 
	d="
M147.003662,91.599480 
	C143.560501,91.404373 139.869705,88.724884 137.008362,93.587585 
	C136.535980,93.989723 136.081665,93.987312 135.237244,93.647072 
	C134.524704,92.218689 134.202271,91.128128 134.211731,90.011765 
	C135.361298,89.654930 136.178940,89.323891 136.996597,88.992859 
	C140.077682,88.633331 143.158768,88.273811 146.615601,87.962830 
	C146.995453,89.074448 146.999557,90.137543 147.003662,91.599480 
z"/>
<path fill="#F2CAC2" opacity="1.000000" stroke="none" 
	d="
M157.992523,75.983566 
	C156.589706,78.686035 155.469193,81.591652 153.709351,84.037186 
	C151.714783,86.808884 149.109390,87.641212 146.332428,83.744568 
	C145.962585,81.154655 145.904358,79.088638 145.800400,76.680244 
	C145.875488,74.907738 145.996323,73.477600 146.499603,72.025864 
	C149.856247,72.361633 152.830429,72.719017 155.804596,73.076393 
	C156.370712,73.617538 156.936813,74.158684 157.748596,75.105919 
	C157.994278,75.512009 157.992523,75.983566 157.992523,75.983566 
z"/>
<path fill="#5D5C4B" opacity="1.000000" stroke="none" 
	d="
M158.147827,76.291115 
	C157.992523,75.983566 157.994278,75.512009 157.989532,75.276314 
	C160.206940,71.487480 163.011307,74.975822 165.733948,74.695358 
	C166.150482,75.871170 166.314423,76.772415 166.241867,77.841354 
	C163.437973,77.538933 160.870544,77.068802 158.147827,76.291115 
z"/>
<path fill="#D6AAA1" opacity="1.000000" stroke="none" 
	d="
M155.809692,72.744461 
	C152.830429,72.719017 149.856247,72.361633 146.461044,71.714699 
	C146.046265,71.008118 146.052521,70.591095 146.058777,70.174065 
	C148.146896,69.717155 150.235016,69.260246 152.662659,68.906067 
	C153.939713,70.143379 154.877243,71.277954 155.809692,72.744461 
z"/>
<path fill="#5A5948" opacity="1.000000" stroke="none" 
	d="
M145.846130,77.022614 
	C145.904358,79.088638 145.962585,81.154655 146.045258,83.596085 
	C142.412003,84.040245 138.633255,83.852341 137.005539,88.618034 
	C136.178940,89.323891 135.361298,89.654930 133.927963,89.820480 
	C133.179199,88.764908 133.046112,87.874809 133.288376,86.947868 
	C136.509430,84.600571 137.301010,79.551941 142.481384,80.261322 
	C142.602020,80.277840 142.705826,78.890572 143.131989,78.534393 
	C143.912598,77.881981 144.928391,77.510963 145.846130,77.022614 
z"/>
<path fill="#EFE6EA" opacity="1.000000" stroke="none" 
	d="
M116.974068,87.009026 
	C113.059799,84.142647 113.338844,80.057480 114.646317,76.320923 
	C115.345085,74.323936 117.655602,71.709724 119.464020,71.519844 
	C123.663857,71.078857 126.751350,73.870110 128.844574,77.482994 
	C129.330124,78.321053 129.529800,79.324745 129.903625,80.980453 
	C129.610199,83.132469 129.274155,84.556267 128.607697,86.149704 
	C124.509537,86.549232 120.741798,86.779129 116.974068,87.009026 
z"/>
<path fill="#6F5E50" opacity="1.000000" stroke="none" 
	d="
M145.800385,76.680237 
	C144.928391,77.510963 143.912598,77.881981 143.131989,78.534393 
	C142.705826,78.890572 142.602020,80.277840 142.481384,80.261322 
	C137.301010,79.551941 136.509430,84.600571 133.264130,86.555084 
	C132.530594,81.469307 132.196671,76.739471 131.862762,72.009628 
	C131.891052,71.827759 131.919342,71.645897 132.284546,70.964539 
	C132.760620,69.324890 132.899780,68.184738 133.038925,67.044594 
	C134.069717,67.928772 135.100525,68.812950 136.256165,69.804222 
	C136.442581,68.224396 136.597534,66.911194 136.881653,65.302963 
	C138.612396,65.007004 140.218948,65.086716 141.814484,64.988037 
	C144.958969,64.793571 146.213440,66.332771 146.038544,69.749786 
	C146.052521,70.591095 146.046265,71.008118 146.078583,71.736313 
	C145.996323,73.477600 145.875488,74.907738 145.800385,76.680237 
z"/>
<path fill="#E4B5AC" opacity="1.000000" stroke="none" 
	d="
M88.004440,96.933044 
	C88.004440,96.933037 87.575539,96.915451 87.366837,96.962830 
	C87.172142,95.641663 87.186150,94.273117 87.569038,92.468468 
	C89.033508,91.664505 90.129097,91.296638 91.564575,90.948425 
	C95.014252,92.689552 96.878593,90.238747 96.545113,88.263741 
	C96.073326,85.469582 97.541405,84.449562 98.955032,82.992432 
	C100.312538,86.160217 101.302887,89.211243 105.079765,90.978775 
	C108.680206,92.663742 107.896957,97.319588 103.985344,100.594589 
	C101.862228,101.614784 99.817421,102.303764 97.385139,102.596207 
	C97.067642,101.061142 97.067665,99.913116 97.220612,98.785843 
	C97.698112,95.266594 97.200958,94.682083 92.657394,94.039955 
	C90.885437,95.022125 89.444939,95.977585 88.004440,96.933044 
z"/>
<path fill="#F0E8EA" opacity="1.000000" stroke="none" 
	d="
M98.724030,82.829109 
	C97.541405,84.449562 96.073326,85.469582 96.545113,88.263741 
	C96.878593,90.238747 95.014252,92.689552 91.361992,90.659103 
	C89.552643,88.231003 88.285759,86.111877 87.018875,83.992752 
	C87.018875,83.992752 86.977135,83.561066 86.943741,83.346710 
	C87.926064,81.459625 88.738869,79.607018 90.016098,78.166084 
	C91.228844,76.797890 92.927605,75.860481 94.412643,74.733643 
	C95.389381,76.227661 96.465385,77.668274 97.308105,79.234406 
	C97.874069,80.286194 98.109634,81.515755 98.724030,82.829109 
z"/>
<path fill="#643E35" opacity="1.000000" stroke="none" 
	d="
M133.126556,66.777115 
	C132.899780,68.184738 132.760620,69.324890 132.370941,70.702332 
	C130.988083,63.025318 124.687447,60.359020 116.659363,64.372932 
	C114.792755,65.306213 112.881866,66.150917 110.775887,66.565125 
	C113.812050,59.375076 123.448967,57.256336 130.594696,61.782398 
	C131.789978,62.115685 132.674683,62.277897 133.776062,62.700760 
	C133.993103,63.133907 133.993439,63.306412 133.993958,63.992481 
	C133.993240,64.675888 133.992355,64.845734 133.991486,65.015579 
	C133.732376,65.513596 133.473267,66.011612 133.126556,66.777115 
z"/>
<path fill="#D7A195" opacity="1.000000" stroke="none" 
	d="
M116.881752,87.234550 
	C120.741798,86.779129 124.509537,86.549232 128.975433,86.215332 
	C131.161545,89.409729 132.649460,92.708138 134.137390,96.006554 
	C134.137390,96.006554 134.253098,96.255127 134.077728,96.691132 
	C132.931870,96.763344 131.961395,96.399544 130.988068,95.642609 
	C130.480042,93.257301 129.974838,91.265129 129.467163,89.263260 
	C126.321594,90.283661 123.674576,91.142326 120.798561,91.728333 
	C119.405022,91.286705 118.240471,91.117737 117.075928,90.948769 
	C116.732269,90.186646 116.388611,89.424522 116.031586,88.347656 
	C116.342438,87.932312 116.599503,87.741371 116.881752,87.234550 
z"/>
<path fill="#BF978A" opacity="1.000000" stroke="none" 
	d="
M134.146301,95.712311 
	C132.649460,92.708138 131.161545,89.409729 129.305862,86.045685 
	C129.274155,84.556267 129.610199,83.132469 129.965363,81.337692 
	C130.436646,78.174774 130.888809,75.382843 131.601868,72.300278 
	C132.196671,76.739471 132.530594,81.469307 132.888763,86.591934 
	C133.046112,87.874809 133.179199,88.764908 133.596069,89.846283 
	C134.202271,91.128128 134.524704,92.218689 134.896408,93.648819 
	C134.682190,94.464943 134.418701,94.941505 134.146301,95.712311 
z"/>
<path fill="#69372A" opacity="1.000000" stroke="none" 
	d="
M152.669952,43.030384 
	C151.803513,43.838783 150.605194,44.675369 149.200974,45.249012 
	C150.109406,44.343567 151.223724,43.701069 152.669952,43.030384 
z"/>
<path fill="#654D3E" opacity="1.000000" stroke="none" 
	d="
M134.993774,60.004902 
	C134.866196,59.860558 134.744690,59.711376 134.623199,59.562195 
	C134.713898,59.610207 134.804611,59.658215 134.952301,59.847145 
	C135.009308,59.988071 134.999847,60.000065 134.993774,60.004902 
z"/>
<path fill="#B89C92" opacity="1.000000" stroke="none" 
	d="
M86.728500,84.237915 
	C88.285759,86.111877 89.552643,88.231003 91.022110,90.639450 
	C90.129097,91.296638 89.033508,91.664505 87.594360,92.058945 
	C86.979919,89.551376 86.709023,87.017235 86.728500,84.237915 
z"/>
<path fill="#6F5E50" opacity="1.000000" stroke="none" 
	d="
M134.161743,64.925125 
	C133.992355,64.845734 133.993240,64.675888 133.995880,64.251236 
	C134.174393,64.166611 134.366669,64.324890 134.514420,64.517349 
	C134.542969,64.554543 134.397308,64.725449 134.161743,64.925125 
z"/>
<path fill="#643B2A" opacity="1.000000" stroke="none" 
	d="
M136.000427,59.999649 
	C136.123962,60.143417 136.247070,60.287540 136.370163,60.431664 
	C136.282913,60.381817 136.195663,60.331970 136.053894,60.141495 
	C135.999390,60.000874 136.000000,60.000000 136.000427,59.999649 
z"/>
<path fill="#5E5F4F" opacity="1.000000" stroke="none" 
	d="
M99.125847,113.509689 
	C98.928291,113.659554 98.610962,113.574417 98.153671,113.276825 
	C98.344498,113.134476 98.675293,113.204582 99.125847,113.509689 
z"/>
<path fill="#E3A89B" opacity="1.000000" stroke="none" 
	d="
M92.988846,94.013245 
	C97.200958,94.682083 97.698112,95.266594 97.220612,98.785843 
	C97.067665,99.913116 97.067642,101.061142 97.001144,102.598465 
	C96.173935,104.842674 95.343239,106.688087 94.257889,108.759315 
	C94.003242,108.985130 93.596466,109.016754 93.396797,109.051636 
	C92.657509,108.153397 92.117889,107.220276 91.281136,105.727615 
	C91.652283,101.449791 92.320564,97.731522 92.988846,94.013245 
z"/>
<path fill="#CA978B" opacity="1.000000" stroke="none" 
	d="
M92.657387,94.039955 
	C92.320564,97.731522 91.652283,101.449791 90.979935,105.583542 
	C89.984283,103.253166 88.992691,100.507301 88.002769,97.347244 
	C89.444939,95.977585 90.885437,95.022125 92.657387,94.039955 
z"/>
<path fill="#E5ADA2" opacity="1.000000" stroke="none" 
	d="
M130.990906,96.035736 
	C131.961395,96.399544 132.931870,96.763344 134.027344,96.818634 
	C135.023468,97.804810 135.894592,99.099495 136.749756,100.737350 
	C135.657883,101.491020 134.265045,101.604668 133.557465,102.360130 
	C128.911697,107.320091 125.249763,104.469116 120.768204,101.687126 
	C116.503822,99.039940 116.985497,95.584084 117.050613,91.389313 
	C118.240471,91.117737 119.405022,91.286705 120.787598,92.128159 
	C121.006348,93.867134 121.007065,94.933609 121.012634,96.375481 
	C123.527588,100.456467 126.702026,101.355385 129.273163,98.832413 
	C130.012512,97.776588 130.501709,96.906166 130.990906,96.035736 
z"/>
<path fill="#DB9D8E" opacity="1.000000" stroke="none" 
	d="
M130.988068,95.642601 
	C130.501709,96.906166 130.012512,97.776588 128.908356,98.788803 
	C125.864861,97.953758 123.436317,96.976921 121.007782,96.000092 
	C121.007065,94.933609 121.006348,93.867134 121.016594,92.400826 
	C123.674576,91.142326 126.321594,90.283661 129.467163,89.263260 
	C129.974838,91.265129 130.480042,93.257301 130.988068,95.642601 
z"/>
<path fill="#D7A195" opacity="1.000000" stroke="none" 
	d="
M121.012634,96.375481 
	C123.436317,96.976921 125.864861,97.953758 128.658203,98.974205 
	C126.702026,101.355385 123.527588,100.456467 121.012634,96.375481 
z"/>
</svg>